<svg id="svg" version="1.1" xmlns="http://www.w3.org/2000/svg" xmlns:xlink="http://www.w3.org/1999/xlink" width="400" height="189.0909090909091" viewBox="0, 0, 400,189.0909090909091"><g id="svgg"><path id="path0" d="M315.745 15.607 C 315.225 15.751,314.246 15.920,313.570 15.981 C 312.894 16.043,311.872 16.215,311.300 16.364 C 309.751 16.769,308.128 17.186,306.868 17.506 C 306.251 17.662,305.655 17.862,305.544 17.951 C 305.433 18.040,305.045 18.176,304.681 18.253 C 304.317 18.330,303.851 18.510,303.646 18.653 C 303.441 18.796,303.118 18.913,302.929 18.913 C 302.595 18.913,301.239 19.496,298.930 20.632 C 298.315 20.935,297.751 21.182,297.677 21.182 C 297.551 21.182,296.750 21.627,295.064 22.635 C 294.684 22.862,294.118 23.192,293.806 23.370 C 293.071 23.787,291.186 25.014,291.064 25.155 C 291.012 25.215,290.161 25.868,289.173 26.607 C 285.806 29.123,281.415 33.469,279.355 36.323 C 278.946 36.889,278.496 37.482,278.355 37.642 C 277.841 38.219,276.749 39.864,275.031 42.648 C 274.252 43.909,272.201 48.084,271.593 49.645 C 270.812 51.650,270.638 52.149,270.637 52.391 C 270.636 52.545,270.516 52.902,270.369 53.183 C 270.076 53.746,269.365 56.325,269.119 57.718 C 269.033 58.205,268.872 58.774,268.760 58.982 C 268.649 59.191,268.472 60.191,268.366 61.205 C 268.261 62.220,268.075 63.395,267.953 63.818 C 267.645 64.879,267.646 75.642,267.953 76.703 C 268.075 77.126,268.256 78.247,268.354 79.194 C 268.452 80.141,268.660 81.327,268.816 81.829 C 269.299 83.383,269.881 85.649,269.888 86.001 C 269.892 86.185,270.059 86.676,270.260 87.092 C 270.461 87.508,270.628 88.021,270.632 88.232 C 270.635 88.443,270.753 88.783,270.894 88.989 C 271.034 89.194,271.207 89.617,271.279 89.929 C 271.416 90.531,271.438 90.584,272.811 93.522 C 273.953 95.969,274.360 96.747,275.017 97.740 C 275.313 98.187,275.556 98.604,275.556 98.666 C 275.556 98.824,276.772 100.677,277.765 102.033 C 278.222 102.657,278.914 103.604,279.303 104.138 C 280.016 105.116,282.382 107.793,283.786 109.210 C 285.364 110.802,289.618 114.421,289.911 114.421 C 289.979 114.421,290.312 114.675,290.652 114.985 C 291.216 115.500,291.820 115.908,293.602 116.974 C 294.842 117.716,297.600 119.250,298.251 119.559 C 301.372 121.042,302.200 121.410,302.682 121.529 C 302.988 121.604,303.456 121.780,303.723 121.919 C 303.990 122.059,304.337 122.173,304.495 122.174 C 304.652 122.174,305.099 122.345,305.487 122.553 C 305.875 122.761,306.378 122.931,306.605 122.931 C 306.832 122.931,307.535 123.092,308.166 123.288 C 309.897 123.826,310.882 124.059,312.340 124.275 C 313.069 124.384,314.260 124.615,314.988 124.789 C 316.942 125.257,327.874 125.253,330.213 124.784 C 331.097 124.606,332.374 124.374,333.050 124.268 C 334.563 124.030,335.640 123.773,337.116 123.297 C 337.740 123.096,338.466 122.931,338.729 122.931 C 338.992 122.931,339.374 122.819,339.580 122.682 C 339.785 122.544,340.676 122.194,341.560 121.904 C 343.004 121.430,345.930 120.169,346.667 119.704 C 346.823 119.605,347.078 119.475,347.234 119.415 C 347.951 119.136,349.526 118.289,350.733 117.532 C 351.461 117.075,352.257 116.613,352.502 116.504 C 352.746 116.396,353.449 115.925,354.062 115.458 C 354.675 114.992,355.709 114.208,356.359 113.717 C 358.082 112.416,361.959 108.912,362.837 107.863 C 363.253 107.365,363.977 106.531,364.446 106.009 C 365.250 105.113,366.618 103.366,367.337 102.317 C 367.515 102.057,368.003 101.376,368.421 100.804 C 368.839 100.232,369.306 99.508,369.459 99.196 C 369.612 98.884,370.160 97.948,370.676 97.116 C 371.192 96.284,371.618 95.531,371.623 95.442 C 371.631 95.282,372.984 92.332,373.361 91.651 C 373.565 91.284,374.141 89.691,374.498 88.511 C 374.608 88.147,374.793 87.678,374.909 87.470 C 375.026 87.262,375.222 86.667,375.346 86.147 C 375.572 85.201,375.737 84.577,376.369 82.270 C 376.555 81.593,376.758 80.465,376.822 79.761 C 376.886 79.058,377.039 78.250,377.163 77.965 C 377.616 76.923,377.589 64.727,377.129 62.522 C 376.914 61.492,376.738 60.379,376.738 60.049 C 376.738 59.719,376.579 58.903,376.384 58.235 C 376.053 57.099,375.817 56.202,375.365 54.374 C 375.262 53.957,375.071 53.404,374.940 53.144 C 374.808 52.884,374.638 52.374,374.560 52.009 C 374.483 51.645,374.303 51.180,374.160 50.974 C 374.017 50.769,373.901 50.442,373.901 50.247 C 373.901 49.646,371.149 44.014,369.994 42.250 C 369.646 41.719,369.362 41.236,369.362 41.176 C 369.362 41.043,367.855 38.758,367.576 38.468 C 367.466 38.353,367.035 37.771,366.619 37.174 C 366.203 36.577,365.689 35.890,365.476 35.647 C 365.263 35.404,364.582 34.624,363.963 33.915 C 361.646 31.259,358.837 28.646,356.143 26.638 C 355.144 25.894,354.239 25.191,354.133 25.077 C 353.927 24.857,353.847 24.805,351.994 23.696 C 351.336 23.301,350.485 22.788,350.103 22.555 C 349.721 22.321,349.154 22.001,348.842 21.843 C 348.530 21.684,348.147 21.480,347.991 21.389 C 347.835 21.299,346.983 20.888,346.099 20.477 C 345.215 20.066,344.099 19.546,343.620 19.321 C 343.140 19.096,342.585 18.913,342.385 18.913 C 342.186 18.913,341.855 18.797,341.650 18.657 C 341.317 18.429,339.803 17.931,336.927 17.105 C 334.850 16.508,333.457 16.206,332.104 16.059 C 331.324 15.974,330.132 15.774,329.456 15.615 C 327.769 15.217,317.174 15.211,315.745 15.607 M311.516 52.908 C 311.766 53.298,312.072 53.787,312.196 53.995 C 312.777 54.977,313.891 56.852,314.232 57.420 C 314.440 57.768,314.853 58.496,315.150 59.037 C 315.447 59.579,315.833 60.240,316.009 60.507 C 316.184 60.774,316.425 61.163,316.545 61.371 C 316.717 61.670,319.007 65.587,319.807 66.950 C 319.899 67.106,320.291 67.787,320.679 68.463 C 321.659 70.172,322.504 71.489,322.620 71.489 C 322.827 71.489,323.593 70.655,323.593 70.430 C 323.593 70.299,323.710 70.076,323.852 69.934 C 324.102 69.684,325.246 67.731,325.710 66.761 C 325.834 66.501,326.039 66.161,326.165 66.005 C 326.291 65.849,326.662 65.210,326.989 64.586 C 327.315 63.962,328.001 62.771,328.511 61.939 C 329.022 61.106,329.443 60.336,329.448 60.227 C 329.452 60.118,329.562 59.923,329.691 59.793 C 329.907 59.578,330.926 57.836,331.646 56.454 C 331.808 56.142,332.146 55.546,332.396 55.130 C 332.647 54.714,332.939 54.176,333.045 53.935 C 333.152 53.694,333.462 53.205,333.734 52.848 L 334.229 52.199 337.333 52.199 C 340.012 52.199,340.453 52.240,340.554 52.503 C 340.677 52.823,340.261 53.682,338.131 57.494 C 337.754 58.170,337.077 59.404,336.626 60.236 C 336.176 61.069,335.617 62.090,335.384 62.506 C 335.151 62.922,334.692 63.773,334.363 64.397 C 333.772 65.519,332.437 67.914,332.097 68.463 C 332.000 68.619,331.792 69.002,331.634 69.314 C 331.476 69.626,331.150 70.222,330.909 70.638 C 330.668 71.054,330.054 72.161,329.545 73.097 C 329.036 74.033,328.382 75.225,328.092 75.745 C 327.802 76.265,327.436 76.946,327.279 77.258 C 327.121 77.570,326.914 77.953,326.818 78.109 C 326.071 79.324,326.052 79.515,326.052 85.904 C 326.052 93.628,326.429 92.861,322.636 92.861 L 319.612 92.861 319.428 92.375 C 319.322 92.098,319.238 89.167,319.231 85.520 L 319.218 79.149 318.672 78.203 C 318.371 77.683,317.858 76.747,317.532 76.123 C 317.205 75.499,316.818 74.854,316.672 74.690 C 316.526 74.525,316.407 74.266,316.407 74.113 C 316.407 73.960,316.301 73.729,316.171 73.599 C 315.953 73.380,315.150 71.991,314.078 69.976 C 313.035 68.017,312.386 66.844,312.245 66.667 C 312.162 66.563,311.827 65.967,311.500 65.343 C 310.909 64.215,310.306 63.127,309.218 61.229 C 308.905 60.683,308.518 59.981,308.358 59.669 C 308.199 59.357,307.753 58.535,307.367 57.842 C 303.899 51.605,303.833 52.199,307.996 52.199 L 311.060 52.199 311.516 52.908 M324.791 54.420 C 326.874 55.854,326.891 58.741,324.825 60.434 C 322.216 62.571,318.218 59.953,319.055 56.655 C 319.715 54.050,322.613 52.921,324.791 54.420 " stroke="none" fill="#fcdc54" fill-rule="evenodd"></path><path id="path1" d="M68.271 15.604 C 67.697 15.744,66.505 15.947,65.623 16.056 C 64.741 16.165,63.508 16.386,62.884 16.548 C 59.393 17.452,56.784 18.253,55.981 18.666 C 55.721 18.801,55.355 18.911,55.167 18.911 C 54.980 18.912,54.512 19.074,54.127 19.272 C 53.743 19.470,52.662 19.992,51.726 20.433 C 49.413 21.522,48.562 21.955,48.227 22.214 C 48.071 22.334,47.730 22.535,47.470 22.660 C 47.210 22.786,46.742 23.055,46.430 23.259 C 46.118 23.463,45.532 23.824,45.128 24.061 C 43.927 24.765,43.781 24.859,43.492 25.114 C 43.340 25.248,42.534 25.872,41.702 26.500 C 38.016 29.283,33.157 34.082,31.584 36.495 C 31.428 36.734,30.866 37.493,30.335 38.181 C 29.805 38.870,29.227 39.688,29.053 40.000 C 28.878 40.312,28.589 40.797,28.410 41.077 C 27.487 42.526,26.274 44.724,25.561 46.241 C 25.121 47.177,24.595 48.258,24.390 48.643 C 24.186 49.027,24.018 49.453,24.018 49.588 C 24.017 49.724,23.897 50.063,23.752 50.342 C 23.606 50.621,23.428 51.132,23.356 51.477 C 23.284 51.822,23.115 52.279,22.980 52.493 C 22.711 52.918,22.217 54.592,21.921 56.076 C 21.818 56.596,21.620 57.319,21.482 57.683 C 21.344 58.047,21.169 58.856,21.095 59.480 C 21.020 60.104,20.843 61.061,20.703 61.607 C 19.944 64.546,19.941 75.495,20.698 78.771 C 20.842 79.395,21.020 80.416,21.094 81.040 C 21.167 81.664,21.335 82.439,21.467 82.762 C 21.599 83.084,21.768 83.712,21.843 84.156 C 21.918 84.600,22.228 85.698,22.532 86.595 C 22.835 87.493,23.172 88.525,23.280 88.889 C 23.387 89.253,23.598 89.819,23.747 90.147 C 23.897 90.475,24.019 90.841,24.019 90.960 C 24.019 91.147,24.435 92.036,24.997 93.050 C 25.084 93.206,25.243 93.546,25.351 93.806 C 25.739 94.740,26.740 96.699,27.127 97.280 C 27.344 97.606,27.626 98.085,27.755 98.345 C 27.883 98.605,28.095 98.984,28.226 99.186 C 28.815 100.099,30.192 102.104,30.720 102.818 C 31.039 103.249,31.470 103.841,31.678 104.132 C 33.481 106.657,37.741 110.918,40.851 113.307 C 44.172 115.857,44.641 116.195,45.836 116.894 C 46.446 117.250,47.254 117.727,47.633 117.954 C 48.012 118.181,48.577 118.498,48.889 118.659 C 49.201 118.820,49.584 119.030,49.740 119.124 C 49.896 119.219,50.492 119.510,51.064 119.770 C 51.636 120.031,52.657 120.499,53.333 120.811 C 54.009 121.123,55.286 121.614,56.170 121.903 C 57.054 122.192,57.880 122.506,58.006 122.601 C 58.131 122.696,58.727 122.888,59.329 123.028 C 60.602 123.322,61.729 123.610,63.114 123.996 C 63.656 124.147,64.781 124.348,65.613 124.443 C 66.446 124.538,67.491 124.726,67.937 124.861 C 69.253 125.260,80.818 125.204,82.553 124.791 C 83.281 124.618,84.515 124.387,85.296 124.279 C 86.741 124.079,87.679 123.866,89.362 123.354 C 89.882 123.196,90.605 123.000,90.969 122.918 C 91.333 122.836,92.227 122.545,92.955 122.270 C 93.683 121.995,94.572 121.682,94.930 121.575 C 95.289 121.468,96.534 120.921,97.698 120.359 C 98.862 119.798,99.867 119.338,99.932 119.338 C 100.031 119.338,102.354 118.031,103.732 117.200 C 108.730 114.188,115.116 108.490,118.395 104.117 C 120.502 101.307,120.598 101.172,121.271 100.078 C 121.612 99.523,122.038 98.842,122.218 98.565 C 123.364 96.797,126.513 90.245,126.531 89.592 C 126.535 89.465,126.702 89.021,126.903 88.605 C 127.104 88.189,127.271 87.696,127.275 87.508 C 127.278 87.321,127.407 86.926,127.560 86.630 C 127.826 86.115,128.104 85.040,128.707 82.206 C 128.858 81.495,129.028 80.837,129.085 80.744 C 129.143 80.652,129.319 79.489,129.476 78.160 C 129.633 76.832,129.838 75.106,129.930 74.326 C 130.154 72.430,130.154 68.182,129.930 66.194 C 129.497 62.355,129.139 59.940,128.779 58.440 C 128.567 57.556,128.281 56.364,128.144 55.792 C 127.874 54.666,127.188 52.524,126.902 51.915 C 126.685 51.453,126.193 50.068,125.927 49.173 C 125.819 48.809,125.612 48.376,125.466 48.212 C 125.320 48.048,125.201 47.847,125.201 47.765 C 125.201 47.353,122.430 42.086,121.775 41.253 C 121.579 41.004,121.418 40.719,121.418 40.619 C 121.418 40.519,121.118 40.041,120.751 39.557 C 118.876 37.083,118.055 35.974,117.901 35.708 C 117.439 34.914,113.916 31.231,111.632 29.156 C 109.406 27.134,107.152 25.467,103.452 23.103 C 101.829 22.066,95.948 19.193,94.846 18.898 C 94.534 18.815,93.683 18.523,92.955 18.249 C 92.227 17.975,91.333 17.670,90.969 17.571 C 90.605 17.472,89.882 17.266,89.362 17.113 C 87.509 16.568,85.296 16.076,84.686 16.073 C 84.345 16.071,83.266 15.901,82.288 15.694 C 80.062 15.225,70.097 15.161,68.271 15.604 M77.725 52.209 C 79.760 52.339,81.275 52.537,82.065 52.777 C 82.733 52.979,83.386 53.144,83.517 53.144 C 83.648 53.144,84.587 53.530,85.603 54.001 C 89.068 55.610,91.255 58.373,92.335 62.506 C 92.594 63.498,92.597 68.723,92.339 69.693 C 91.193 74.000,89.309 76.522,85.906 78.305 C 84.171 79.215,84.147 79.109,87.123 83.515 C 88.563 85.646,89.953 87.720,90.213 88.126 C 90.827 89.085,91.864 90.633,92.053 90.875 C 93.540 92.771,93.422 92.861,89.444 92.861 C 85.487 92.861,85.543 92.879,84.594 91.232 C 84.200 90.548,83.749 89.794,83.593 89.557 C 83.437 89.321,82.986 88.584,82.590 87.921 C 82.193 87.257,81.495 86.118,81.038 85.390 C 80.581 84.662,80.076 83.811,79.916 83.499 C 79.410 82.515,78.741 81.458,78.338 81.005 L 77.948 80.567 72.626 80.567 C 69.319 80.567,67.165 80.642,66.938 80.763 C 66.589 80.950,66.572 81.216,66.572 86.564 C 66.572 93.523,66.953 92.861,62.953 92.861 C 60.006 92.861,59.958 92.854,59.857 92.435 C 59.801 92.201,59.778 83.077,59.806 72.160 L 59.858 52.310 60.331 52.179 C 61.090 51.967,74.306 51.991,77.725 52.209 M66.809 58.368 C 66.430 58.534,66.469 73.816,66.849 74.131 C 67.407 74.595,79.501 74.299,80.757 73.792 C 83.186 72.810,84.205 71.974,85.265 70.095 C 86.391 68.101,86.501 64.189,85.473 62.750 C 85.271 62.468,85.106 62.182,85.106 62.114 C 85.106 61.156,82.453 59.315,80.284 58.770 C 78.798 58.396,67.511 58.059,66.809 58.368 M202.359 151.640 L 202.451 152.530 202.515 151.795 C 202.550 151.392,202.509 150.991,202.424 150.906 C 202.338 150.820,202.309 151.151,202.359 151.640 M349.017 150.983 C 348.964 151.121,348.946 152.036,348.977 153.017 L 349.034 154.799 349.127 152.766 C 349.219 150.751,349.203 150.498,349.017 150.983 M232.475 156.443 C 232.453 159.427,232.499 161.909,232.577 161.957 C 232.655 162.005,232.697 160.415,232.670 158.422 C 232.580 151.661,232.515 151.001,232.475 156.443 M88.578 154.610 C 88.577 155.546,88.609 155.953,88.649 155.514 C 88.689 155.075,88.689 154.309,88.650 153.812 C 88.611 153.315,88.578 153.674,88.578 154.610 M196.742 154.515 C 196.742 154.983,196.779 155.175,196.824 154.941 C 196.869 154.707,196.869 154.324,196.824 154.090 C 196.779 153.856,196.742 154.047,196.742 154.515 M70.875 158.058 C 71.317 158.098,72.040 158.098,72.482 158.058 C 72.924 158.018,72.563 157.986,71.678 157.986 C 70.794 157.986,70.433 158.018,70.875 158.058 M349.005 160.095 C 349.006 161.135,349.037 161.536,349.076 160.987 C 349.114 160.437,349.114 159.586,349.075 159.095 C 349.036 158.605,349.005 159.054,349.005 160.095 M196.689 160.417 C 196.638 161.322,196.663 161.995,196.746 161.912 C 196.829 161.829,196.871 161.088,196.839 160.266 L 196.782 158.771 196.689 160.417 M269.191 160.378 C 269.191 161.262,269.224 161.624,269.264 161.182 C 269.304 160.740,269.304 160.017,269.264 159.574 C 269.224 159.132,269.191 159.494,269.191 160.378 M88.571 160.757 C 88.571 161.433,88.605 161.709,88.647 161.371 C 88.689 161.033,88.689 160.480,88.647 160.142 C 88.605 159.804,88.571 160.080,88.571 160.757 " stroke="none" fill="#ec6c6c" fill-rule="evenodd"></path><path id="path2" d="M0.000 94.563 L 0.000 189.125 200.000 189.125 L 400.000 189.125 400.000 94.563 L 400.000 0.000 200.000 0.000 L 0.000 0.000 0.000 94.563 M82.288 15.694 C 83.266 15.901,84.345 16.071,84.686 16.073 C 85.296 16.076,87.509 16.568,89.362 17.113 C 89.882 17.266,90.605 17.472,90.969 17.571 C 91.333 17.670,92.227 17.975,92.955 18.249 C 93.683 18.523,94.534 18.815,94.846 18.898 C 95.948 19.193,101.829 22.066,103.452 23.103 C 107.152 25.467,109.406 27.134,111.632 29.156 C 113.916 31.231,117.439 34.914,117.901 35.708 C 118.055 35.974,118.876 37.083,120.751 39.557 C 121.118 40.041,121.418 40.519,121.418 40.619 C 121.418 40.719,121.579 41.004,121.775 41.253 C 122.430 42.086,125.201 47.353,125.201 47.765 C 125.201 47.847,125.320 48.048,125.466 48.212 C 125.612 48.376,125.819 48.809,125.927 49.173 C 126.193 50.068,126.685 51.453,126.902 51.915 C 127.188 52.524,127.874 54.666,128.144 55.792 C 128.281 56.364,128.567 57.556,128.779 58.440 C 129.139 59.940,129.497 62.355,129.930 66.194 C 130.154 68.182,130.154 72.430,129.930 74.326 C 129.838 75.106,129.633 76.832,129.476 78.160 C 129.319 79.489,129.143 80.652,129.085 80.744 C 129.028 80.837,128.858 81.495,128.707 82.206 C 128.104 85.040,127.826 86.115,127.560 86.630 C 127.407 86.926,127.278 87.321,127.275 87.508 C 127.271 87.696,127.104 88.189,126.903 88.605 C 126.702 89.021,126.535 89.465,126.531 89.592 C 126.513 90.245,123.364 96.797,122.218 98.565 C 122.038 98.842,121.612 99.523,121.271 100.078 C 120.598 101.172,120.502 101.307,118.395 104.117 C 116.903 106.106,112.112 111.040,110.128 112.630 C 108.082 114.271,105.326 116.240,103.732 117.200 C 102.354 118.031,100.031 119.338,99.932 119.338 C 99.867 119.338,98.862 119.798,97.698 120.359 C 96.534 120.921,95.289 121.468,94.930 121.575 C 94.572 121.682,93.683 121.995,92.955 122.270 C 92.227 122.545,91.333 122.836,90.969 122.918 C 90.605 123.000,89.882 123.196,89.362 123.354 C 87.679 123.866,86.741 124.079,85.296 124.279 C 84.515 124.387,83.281 124.618,82.553 124.791 C 80.818 125.204,69.253 125.260,67.937 124.861 C 67.491 124.726,66.446 124.538,65.613 124.443 C 64.781 124.348,63.656 124.147,63.114 123.996 C 61.729 123.610,60.602 123.322,59.329 123.028 C 58.727 122.888,58.131 122.696,58.006 122.601 C 57.880 122.506,57.054 122.192,56.170 121.903 C 55.286 121.614,54.009 121.123,53.333 120.811 C 52.657 120.499,51.636 120.031,51.064 119.770 C 50.492 119.510,49.896 119.219,49.740 119.124 C 49.584 119.030,49.201 118.820,48.889 118.659 C 48.577 118.498,48.012 118.181,47.633 117.954 C 47.254 117.727,46.446 117.250,45.836 116.894 C 44.641 116.195,44.172 115.857,40.851 113.307 C 37.741 110.918,33.481 106.657,31.678 104.132 C 31.470 103.841,31.039 103.249,30.720 102.818 C 30.192 102.104,28.815 100.099,28.226 99.186 C 28.095 98.984,27.883 98.605,27.755 98.345 C 27.626 98.085,27.344 97.606,27.127 97.280 C 26.740 96.699,25.739 94.740,25.351 93.806 C 25.243 93.546,25.084 93.206,24.997 93.050 C 24.435 92.036,24.019 91.147,24.019 90.960 C 24.019 90.841,23.897 90.475,23.747 90.147 C 23.598 89.819,23.387 89.253,23.280 88.889 C 23.172 88.525,22.835 87.493,22.532 86.595 C 22.228 85.698,21.918 84.600,21.843 84.156 C 21.768 83.712,21.599 83.084,21.467 82.762 C 21.335 82.439,21.167 81.664,21.094 81.040 C 21.020 80.416,20.842 79.395,20.698 78.771 C 19.941 75.495,19.944 64.546,20.703 61.607 C 20.843 61.061,21.020 60.104,21.095 59.480 C 21.169 58.856,21.344 58.047,21.482 57.683 C 21.620 57.319,21.818 56.596,21.921 56.076 C 22.217 54.592,22.711 52.918,22.980 52.493 C 23.115 52.279,23.284 51.822,23.356 51.477 C 23.428 51.132,23.606 50.621,23.752 50.342 C 23.897 50.063,24.017 49.724,24.018 49.588 C 24.018 49.453,24.186 49.027,24.390 48.643 C 24.595 48.258,25.121 47.177,25.561 46.241 C 26.274 44.724,27.487 42.526,28.410 41.077 C 28.589 40.797,28.878 40.312,29.053 40.000 C 29.227 39.688,29.805 38.870,30.335 38.181 C 30.866 37.493,31.428 36.734,31.584 36.495 C 33.157 34.082,38.016 29.283,41.702 26.500 C 42.534 25.872,43.340 25.248,43.492 25.114 C 43.781 24.859,43.927 24.765,45.128 24.061 C 45.532 23.824,46.118 23.463,46.430 23.259 C 46.742 23.055,47.210 22.786,47.470 22.660 C 47.730 22.535,48.071 22.334,48.227 22.214 C 48.562 21.955,49.413 21.522,51.726 20.433 C 52.662 19.992,53.743 19.470,54.127 19.272 C 54.512 19.074,54.980 18.912,55.167 18.911 C 55.355 18.911,55.721 18.801,55.981 18.666 C 56.784 18.253,59.393 17.452,62.884 16.548 C 63.508 16.386,64.741 16.165,65.623 16.056 C 66.505 15.947,67.697 15.744,68.271 15.604 C 70.097 15.161,80.062 15.225,82.288 15.694 M205.427 15.596 C 206.011 15.748,207.071 15.928,207.783 15.995 C 209.040 16.115,211.118 16.553,213.050 17.106 C 215.878 17.916,217.440 18.429,217.773 18.657 C 217.978 18.797,218.309 18.913,218.508 18.913 C 218.708 18.913,219.221 19.077,219.648 19.278 C 220.076 19.479,221.191 19.996,222.128 20.427 C 224.075 21.323,225.237 21.914,225.581 22.181 C 225.713 22.283,226.067 22.505,226.370 22.673 C 227.778 23.457,228.251 23.738,229.220 24.372 C 230.796 25.402,233.905 27.779,235.066 28.842 C 237.855 31.395,241.414 35.177,242.473 36.714 C 242.787 37.169,243.336 37.924,243.695 38.392 C 244.054 38.861,244.624 39.698,244.963 40.253 C 245.302 40.808,245.728 41.489,245.911 41.766 C 246.093 42.043,246.375 42.525,246.538 42.837 C 246.701 43.149,247.040 43.745,247.291 44.161 C 247.541 44.577,247.801 45.045,247.868 45.201 C 247.935 45.357,248.293 46.123,248.664 46.903 C 249.035 47.683,249.457 48.619,249.602 48.983 C 250.218 50.529,251.397 53.864,251.573 54.563 C 251.678 54.979,251.883 55.745,252.027 56.265 C 252.592 58.294,253.012 60.290,253.124 61.470 C 253.188 62.148,253.366 63.297,253.520 64.023 C 253.845 65.558,253.906 74.348,253.603 75.934 C 253.503 76.454,253.332 77.560,253.224 78.392 C 253.021 79.943,252.479 82.574,252.016 84.255 C 251.873 84.775,251.673 85.541,251.571 85.957 C 251.469 86.374,251.160 87.310,250.884 88.038 C 250.609 88.766,250.303 89.617,250.206 89.929 C 250.109 90.241,249.951 90.667,249.854 90.875 C 249.758 91.083,249.491 91.678,249.260 92.199 C 248.871 93.076,247.247 96.392,246.637 97.555 C 246.491 97.833,246.316 98.104,246.247 98.156 C 246.178 98.208,245.841 98.747,245.497 99.353 C 245.154 99.959,244.585 100.832,244.233 101.293 C 243.881 101.754,243.593 102.177,243.593 102.234 C 243.593 102.396,240.786 105.883,239.724 107.040 C 237.068 109.935,234.713 112.089,231.962 114.140 C 231.338 114.606,230.705 115.090,230.556 115.217 C 230.139 115.571,228.049 116.944,227.518 117.214 C 227.258 117.346,226.704 117.659,226.288 117.910 C 225.538 118.361,221.777 120.248,220.142 120.993 C 219.674 121.206,218.567 121.619,217.683 121.911 C 216.799 122.204,215.863 122.552,215.603 122.686 C 215.343 122.820,214.940 122.930,214.708 122.930 C 214.476 122.931,213.966 123.057,213.574 123.210 C 212.672 123.562,210.603 124.036,208.889 124.282 C 208.161 124.387,206.969 124.615,206.241 124.790 C 204.287 125.257,193.427 125.255,191.489 124.786 C 190.761 124.610,189.626 124.414,188.966 124.349 C 188.306 124.285,187.553 124.151,187.292 124.052 C 187.031 123.953,186.294 123.750,185.655 123.601 C 182.746 122.922,182.187 122.766,181.655 122.481 C 181.343 122.314,180.961 122.177,180.807 122.176 C 180.538 122.175,179.053 121.646,177.872 121.130 C 176.745 120.638,173.516 119.118,173.239 118.949 C 173.083 118.854,172.700 118.648,172.388 118.490 C 172.076 118.333,171.565 118.035,171.253 117.827 C 170.941 117.620,170.473 117.344,170.213 117.212 C 167.660 115.925,161.048 110.536,158.726 107.849 C 158.119 107.147,157.200 106.116,156.683 105.559 C 155.613 104.403,154.374 102.759,154.207 102.270 C 154.144 102.087,154.025 101.939,153.943 101.939 C 153.812 101.939,152.557 100.093,151.949 99.007 C 151.832 98.799,151.553 98.331,151.329 97.967 C 151.104 97.603,150.792 97.050,150.635 96.738 C 150.478 96.426,150.270 96.043,150.173 95.887 C 150.076 95.730,149.604 94.752,149.123 93.712 C 148.642 92.671,148.131 91.565,147.986 91.253 C 147.502 90.207,146.537 87.301,145.976 85.201 C 145.670 84.057,145.289 82.706,145.129 82.199 C 144.969 81.692,144.796 80.798,144.745 80.213 C 144.693 79.628,144.509 78.511,144.335 77.730 C 143.873 75.656,143.872 64.866,144.335 62.790 C 144.509 62.009,144.699 60.835,144.758 60.180 C 144.818 59.525,144.953 58.827,145.060 58.627 C 145.167 58.428,145.375 57.687,145.522 56.981 C 145.960 54.889,146.309 53.646,146.640 53.007 C 146.811 52.677,146.953 52.253,146.957 52.066 C 146.960 51.879,147.128 51.385,147.329 50.969 C 147.530 50.553,147.697 50.098,147.700 49.958 C 147.704 49.818,147.827 49.478,147.973 49.202 C 148.120 48.926,148.634 47.849,149.116 46.809 C 149.598 45.768,150.075 44.790,150.174 44.634 C 150.274 44.478,150.432 44.180,150.525 43.972 C 150.618 43.764,151.052 42.998,151.489 42.270 C 151.926 41.541,152.424 40.701,152.596 40.403 C 152.767 40.104,153.333 39.295,153.853 38.605 C 154.374 37.914,155.035 37.002,155.323 36.578 C 155.612 36.154,156.353 35.261,156.970 34.594 C 157.587 33.927,158.585 32.822,159.188 32.140 C 159.791 31.458,160.709 30.540,161.229 30.101 C 161.749 29.662,162.643 28.872,163.215 28.346 C 163.787 27.820,164.468 27.251,164.728 27.081 C 164.988 26.911,165.771 26.323,166.467 25.774 C 167.164 25.225,167.780 24.775,167.837 24.775 C 167.893 24.775,168.430 24.435,169.029 24.019 C 169.628 23.603,170.178 23.263,170.251 23.263 C 170.323 23.263,170.749 23.020,171.196 22.724 C 172.845 21.631,178.495 18.913,179.118 18.913 C 179.337 18.913,179.742 18.786,180.018 18.631 C 180.663 18.270,181.945 17.819,183.262 17.488 C 185.238 16.992,186.576 16.639,187.534 16.358 C 188.064 16.203,188.872 16.069,189.331 16.060 C 189.790 16.051,190.846 15.891,191.678 15.703 C 193.734 15.240,203.760 15.161,205.427 15.596 M329.456 15.615 C 330.132 15.774,331.324 15.974,332.104 16.059 C 333.457 16.206,334.850 16.508,336.927 17.105 C 339.803 17.931,341.317 18.429,341.650 18.657 C 341.855 18.797,342.186 18.913,342.385 18.913 C 342.585 18.913,343.140 19.096,343.620 19.321 C 344.099 19.546,345.215 20.066,346.099 20.477 C 346.983 20.888,347.835 21.299,347.991 21.389 C 348.147 21.480,348.530 21.684,348.842 21.843 C 349.154 22.001,349.721 22.321,350.103 22.555 C 350.485 22.788,351.336 23.301,351.994 23.696 C 353.847 24.805,353.927 24.857,354.133 25.077 C 354.239 25.191,355.144 25.894,356.143 26.638 C 358.837 28.646,361.646 31.259,363.963 33.915 C 364.582 34.624,365.263 35.404,365.476 35.647 C 365.689 35.890,366.203 36.577,366.619 37.174 C 367.035 37.771,367.466 38.353,367.576 38.468 C 367.855 38.758,369.362 41.043,369.362 41.176 C 369.362 41.236,369.646 41.719,369.994 42.250 C 371.149 44.014,373.901 49.646,373.901 50.247 C 373.901 50.442,374.017 50.769,374.160 50.974 C 374.303 51.180,374.483 51.645,374.560 52.009 C 374.638 52.374,374.808 52.884,374.940 53.144 C 375.071 53.404,375.262 53.957,375.365 54.374 C 375.817 56.202,376.053 57.099,376.384 58.235 C 376.579 58.903,376.738 59.719,376.738 60.049 C 376.738 60.379,376.914 61.492,377.129 62.522 C 377.589 64.727,377.616 76.923,377.163 77.965 C 377.039 78.250,376.886 79.058,376.822 79.761 C 376.758 80.465,376.555 81.593,376.369 82.270 C 375.737 84.577,375.572 85.201,375.346 86.147 C 375.222 86.667,375.026 87.262,374.909 87.470 C 374.793 87.678,374.608 88.147,374.498 88.511 C 374.141 89.691,373.565 91.284,373.361 91.651 C 372.984 92.332,371.631 95.282,371.623 95.442 C 371.618 95.531,371.192 96.284,370.676 97.116 C 370.160 97.948,369.612 98.884,369.459 99.196 C 369.306 99.508,368.839 100.232,368.421 100.804 C 368.003 101.376,367.515 102.057,367.337 102.317 C 366.618 103.366,365.250 105.113,364.446 106.009 C 363.977 106.531,363.253 107.365,362.837 107.863 C 361.959 108.912,358.082 112.416,356.359 113.717 C 355.709 114.208,354.675 114.992,354.062 115.458 C 353.449 115.925,352.746 116.396,352.502 116.504 C 352.257 116.613,351.461 117.075,350.733 117.532 C 349.526 118.289,347.951 119.136,347.234 119.415 C 347.078 119.475,346.823 119.605,346.667 119.704 C 345.930 120.169,343.004 121.430,341.560 121.904 C 340.676 122.194,339.785 122.544,339.580 122.682 C 339.374 122.819,338.992 122.931,338.729 122.931 C 338.466 122.931,337.740 123.096,337.116 123.297 C 335.640 123.773,334.563 124.030,333.050 124.268 C 332.374 124.374,331.097 124.606,330.213 124.784 C 327.874 125.253,316.942 125.257,314.988 124.789 C 314.260 124.615,313.069 124.384,312.340 124.275 C 310.882 124.059,309.897 123.826,308.166 123.288 C 307.535 123.092,306.832 122.931,306.605 122.931 C 306.378 122.931,305.875 122.761,305.487 122.553 C 305.099 122.345,304.652 122.174,304.495 122.174 C 304.337 122.173,303.990 122.059,303.723 121.919 C 303.456 121.780,302.988 121.604,302.682 121.529 C 302.200 121.410,301.372 121.042,298.251 119.559 C 297.600 119.250,294.842 117.716,293.602 116.974 C 291.820 115.908,291.216 115.500,290.652 114.985 C 290.312 114.675,289.979 114.421,289.911 114.421 C 289.618 114.421,285.364 110.802,283.786 109.210 C 282.382 107.793,280.016 105.116,279.303 104.138 C 278.914 103.604,278.222 102.657,277.765 102.033 C 276.772 100.677,275.556 98.824,275.556 98.666 C 275.556 98.604,275.313 98.187,275.017 97.740 C 274.360 96.747,273.953 95.969,272.811 93.522 C 271.438 90.584,271.416 90.531,271.279 89.929 C 271.207 89.617,271.034 89.194,270.894 88.989 C 270.753 88.783,270.635 88.443,270.632 88.232 C 270.628 88.021,270.461 87.508,270.260 87.092 C 270.059 86.676,269.892 86.185,269.888 86.001 C 269.881 85.649,269.299 83.383,268.816 81.829 C 268.660 81.327,268.452 80.141,268.354 79.194 C 268.256 78.247,268.075 77.126,267.953 76.703 C 267.646 75.642,267.645 64.879,267.953 63.818 C 268.075 63.395,268.261 62.220,268.366 61.205 C 268.472 60.191,268.649 59.191,268.760 58.982 C 268.872 58.774,269.033 58.205,269.119 57.718 C 269.365 56.325,270.076 53.746,270.369 53.183 C 270.516 52.902,270.636 52.545,270.637 52.391 C 270.638 52.149,270.812 51.650,271.593 49.645 C 272.201 48.084,274.252 43.909,275.031 42.648 C 276.749 39.864,277.841 38.219,278.355 37.642 C 278.496 37.482,278.946 36.889,279.355 36.323 C 281.415 33.469,285.806 29.123,289.173 26.607 C 290.161 25.868,291.012 25.215,291.064 25.155 C 291.186 25.014,293.071 23.787,293.806 23.370 C 294.118 23.192,294.684 22.862,295.064 22.635 C 296.750 21.627,297.551 21.182,297.677 21.182 C 297.751 21.182,298.315 20.935,298.930 20.632 C 301.239 19.496,302.595 18.913,302.929 18.913 C 303.118 18.913,303.441 18.796,303.646 18.653 C 303.851 18.510,304.317 18.330,304.681 18.253 C 305.045 18.176,305.433 18.040,305.544 17.951 C 305.655 17.862,306.251 17.662,306.868 17.506 C 308.128 17.186,309.751 16.769,311.300 16.364 C 311.872 16.215,312.894 16.043,313.570 15.981 C 314.246 15.920,315.225 15.751,315.745 15.607 C 317.174 15.211,327.769 15.217,329.456 15.615 M60.331 52.179 L 59.858 52.310 59.806 72.160 C 59.778 83.077,59.801 92.201,59.857 92.435 C 59.958 92.854,60.006 92.861,62.953 92.861 C 66.953 92.861,66.572 93.523,66.572 86.564 C 66.572 81.216,66.589 80.950,66.938 80.763 C 67.165 80.642,69.319 80.567,72.626 80.567 L 77.948 80.567 78.338 81.005 C 78.741 81.458,79.410 82.515,79.916 83.499 C 80.076 83.811,80.581 84.662,81.038 85.390 C 81.495 86.118,82.193 87.257,82.590 87.921 C 82.986 88.584,83.437 89.321,83.593 89.557 C 83.749 89.794,84.200 90.548,84.594 91.232 C 85.543 92.879,85.487 92.861,89.444 92.861 C 93.422 92.861,93.540 92.771,92.053 90.875 C 91.864 90.633,90.827 89.085,90.213 88.126 C 89.953 87.720,88.563 85.646,87.123 83.515 C 84.147 79.109,84.171 79.215,85.906 78.305 C 89.309 76.522,91.193 74.000,92.339 69.693 C 92.597 68.723,92.594 63.498,92.335 62.506 C 91.255 58.373,89.068 55.610,85.603 54.001 C 84.587 53.530,83.648 53.144,83.517 53.144 C 83.386 53.144,82.733 52.979,82.065 52.777 C 79.948 52.135,62.238 51.648,60.331 52.179 M197.123 52.345 C 196.893 52.524,196.478 53.097,196.201 53.617 C 195.924 54.137,195.449 55.031,195.144 55.603 C 194.839 56.175,194.398 56.983,194.164 57.400 C 193.929 57.816,193.279 59.007,192.719 60.047 C 192.158 61.087,191.512 62.279,191.282 62.695 C 191.052 63.111,190.544 64.047,190.154 64.775 C 189.763 65.504,189.253 66.440,189.019 66.856 C 188.785 67.272,188.325 68.123,187.997 68.747 C 187.668 69.371,187.184 70.265,186.922 70.733 C 186.659 71.201,186.149 72.137,185.789 72.813 C 185.428 73.489,184.918 74.426,184.655 74.894 C 183.174 77.526,183.247 77.246,183.304 80.114 L 183.357 82.742 192.719 82.837 C 197.868 82.889,202.187 83.000,202.317 83.084 C 202.495 83.200,202.553 84.323,202.553 87.629 C 202.553 93.293,202.279 92.861,205.867 92.861 C 209.268 92.861,208.983 93.334,208.983 87.679 C 208.983 82.391,208.701 82.838,212.044 82.834 C 215.101 82.830,214.928 82.998,215.001 79.960 C 215.083 76.543,215.132 76.596,211.851 76.596 C 208.726 76.596,208.983 77.031,208.983 71.742 C 208.983 66.496,209.291 66.949,205.733 66.953 C 202.354 66.957,202.658 66.496,202.590 71.711 C 202.554 74.469,202.457 76.200,202.331 76.352 C 202.006 76.744,191.046 76.703,190.895 76.310 C 190.835 76.152,190.870 75.918,190.974 75.790 C 191.078 75.661,191.719 74.492,192.399 73.191 C 193.078 71.891,193.847 70.444,194.107 69.976 C 194.367 69.508,194.892 68.530,195.275 67.801 C 195.658 67.073,196.162 66.137,196.396 65.721 C 196.830 64.949,198.243 62.308,199.585 59.764 C 199.996 58.983,200.662 57.749,201.065 57.021 C 203.143 53.263,203.433 52.567,203.036 52.277 C 202.454 51.851,197.685 51.906,197.123 52.345 M304.807 52.325 C 304.502 52.630,304.670 52.991,307.367 57.842 C 307.753 58.535,308.199 59.357,308.358 59.669 C 308.518 59.981,308.905 60.683,309.218 61.229 C 310.306 63.127,310.909 64.215,311.500 65.343 C 311.827 65.967,312.162 66.563,312.245 66.667 C 312.386 66.844,313.035 68.017,314.078 69.976 C 315.150 71.991,315.953 73.380,316.171 73.599 C 316.301 73.729,316.407 73.960,316.407 74.113 C 316.407 74.266,316.526 74.525,316.672 74.690 C 316.818 74.854,317.205 75.499,317.532 76.123 C 317.858 76.747,318.371 77.683,318.672 78.203 L 319.218 79.149 319.231 85.520 C 319.238 89.167,319.322 92.098,319.428 92.375 L 319.612 92.861 322.636 92.861 C 326.429 92.861,326.052 93.628,326.052 85.904 C 326.052 79.515,326.071 79.324,326.818 78.109 C 326.914 77.953,327.121 77.570,327.279 77.258 C 327.436 76.946,327.802 76.265,328.092 75.745 C 328.382 75.225,329.036 74.033,329.545 73.097 C 330.054 72.161,330.668 71.054,330.909 70.638 C 331.150 70.222,331.476 69.626,331.634 69.314 C 331.792 69.002,332.000 68.619,332.097 68.463 C 332.437 67.914,333.772 65.519,334.363 64.397 C 334.692 63.773,335.151 62.922,335.384 62.506 C 335.617 62.090,336.176 61.069,336.626 60.236 C 337.077 59.404,337.754 58.170,338.131 57.494 C 340.261 53.682,340.677 52.823,340.554 52.503 C 340.453 52.240,340.012 52.199,337.333 52.199 L 334.229 52.199 333.734 52.848 C 333.462 53.205,333.152 53.694,333.045 53.935 C 332.939 54.176,332.647 54.714,332.396 55.130 C 332.146 55.546,331.808 56.142,331.646 56.454 C 330.926 57.836,329.907 59.578,329.691 59.793 C 329.562 59.923,329.452 60.118,329.448 60.227 C 329.443 60.336,329.022 61.106,328.511 61.939 C 328.001 62.771,327.315 63.962,326.989 64.586 C 326.662 65.210,326.291 65.849,326.165 66.005 C 326.039 66.161,325.834 66.501,325.710 66.761 C 325.246 67.731,324.102 69.684,323.852 69.934 C 323.710 70.076,323.593 70.299,323.593 70.430 C 323.593 70.655,322.827 71.489,322.620 71.489 C 322.504 71.489,321.659 70.172,320.679 68.463 C 320.291 67.787,319.899 67.106,319.807 66.950 C 319.007 65.587,316.717 61.670,316.545 61.371 C 316.425 61.163,316.184 60.774,316.009 60.507 C 315.833 60.240,315.447 59.579,315.150 59.037 C 314.853 58.496,314.440 57.768,314.232 57.420 C 313.891 56.852,312.777 54.977,312.196 53.995 C 312.072 53.787,311.766 53.298,311.516 52.908 L 311.060 52.199 307.996 52.199 C 306.312 52.199,304.876 52.255,304.807 52.325 M321.728 53.839 C 319.781 54.247,318.473 56.616,319.129 58.547 C 320.273 61.916,324.611 62.125,326.047 58.880 C 327.270 56.114,324.775 53.201,321.728 53.839 M80.284 58.770 C 82.453 59.315,85.106 61.156,85.106 62.114 C 85.106 62.182,85.271 62.468,85.473 62.750 C 86.501 64.189,86.391 68.101,85.265 70.095 C 84.205 71.974,83.186 72.810,80.757 73.792 C 79.501 74.299,67.407 74.595,66.849 74.131 C 66.469 73.816,66.430 58.534,66.809 58.368 C 67.511 58.059,78.798 58.396,80.284 58.770 M33.664 150.633 C 33.924 150.783,34.307 150.985,34.515 151.083 C 35.968 151.763,37.165 155.242,36.217 156.028 C 36.061 156.158,35.934 156.427,35.934 156.626 C 35.934 156.826,35.593 157.323,35.177 157.730 C 34.335 158.556,34.237 159.019,34.799 159.527 C 35.007 159.715,35.177 159.937,35.177 160.020 C 35.177 160.103,35.446 160.569,35.775 161.056 C 36.519 162.157,36.370 162.531,35.158 162.602 C 34.025 162.669,33.517 162.351,32.897 161.183 C 32.607 160.638,32.235 160.057,32.071 159.893 C 31.907 159.729,31.773 159.516,31.773 159.419 C 31.773 159.146,29.454 159.221,29.078 159.507 C 28.822 159.701,28.747 160.039,28.747 161.007 C 28.747 162.609,27.747 163.213,26.520 162.353 C 25.932 161.942,25.848 150.898,26.430 150.559 C 26.975 150.242,33.095 150.304,33.664 150.633 M48.227 152.908 L 48.322 155.366 51.111 155.419 L 53.901 155.471 53.901 153.259 C 53.901 150.680,54.054 150.355,55.266 150.355 C 56.815 150.355,56.738 150.038,56.735 156.366 C 56.731 162.576,56.753 162.461,55.559 162.595 C 54.191 162.749,53.901 162.292,53.901 159.985 C 53.901 157.798,54.057 157.920,51.250 157.920 C 48.152 157.920,48.227 157.859,48.227 160.353 C 48.227 162.605,48.206 162.648,47.064 162.648 C 45.715 162.648,45.768 162.899,45.768 156.532 C 45.768 150.072,45.714 150.307,47.186 150.394 L 48.132 150.449 48.227 152.908 M72.888 150.819 C 73.003 151.023,73.196 151.299,73.318 151.432 C 73.439 151.565,73.598 151.952,73.670 152.291 C 73.742 152.630,73.910 153.035,74.043 153.191 C 74.175 153.348,74.342 153.746,74.412 154.077 C 74.482 154.408,74.662 154.780,74.811 154.904 C 74.961 155.028,75.083 155.258,75.083 155.416 C 75.083 155.574,75.266 156.096,75.489 156.575 C 75.713 157.055,76.066 157.830,76.273 158.298 C 77.194 160.374,77.426 160.882,77.673 161.368 C 78.074 162.152,77.731 162.648,76.787 162.648 C 75.534 162.648,74.704 162.010,74.704 161.045 C 74.704 160.148,68.813 159.646,68.535 160.520 C 68.042 162.070,67.486 162.641,66.468 162.645 C 65.217 162.650,64.950 162.080,65.603 160.794 C 65.799 160.409,66.128 159.712,66.334 159.243 C 67.077 157.559,67.570 156.489,67.919 155.802 C 68.114 155.417,68.274 154.925,68.274 154.708 C 68.274 154.492,68.402 154.265,68.558 154.206 C 68.714 154.146,68.842 153.956,68.842 153.783 C 68.842 153.611,69.012 153.152,69.220 152.764 C 69.428 152.376,69.598 151.937,69.598 151.788 C 69.598 150.573,72.301 149.778,72.888 150.819 M93.617 150.635 C 93.877 150.786,94.312 151.002,94.584 151.115 C 95.675 151.566,96.311 153.012,96.228 154.854 C 96.092 157.910,94.838 158.874,90.591 159.184 C 88.928 159.305,88.896 159.339,88.892 160.955 C 88.888 162.408,88.714 162.648,87.660 162.648 C 87.233 162.648,86.782 162.546,86.657 162.421 C 86.323 162.087,86.332 150.615,86.667 150.480 C 87.276 150.234,93.153 150.365,93.617 150.635 M111.962 150.630 C 112.222 150.778,112.712 151.028,113.050 151.185 C 113.766 151.517,113.838 151.974,113.286 152.676 C 113.078 152.940,112.908 153.250,112.908 153.363 C 112.908 153.660,111.670 153.618,111.417 153.312 C 111.169 153.014,109.403 152.792,108.475 152.943 C 107.236 153.144,107.659 154.613,109.019 154.834 C 109.386 154.893,109.784 155.059,109.902 155.202 C 110.020 155.344,110.290 155.461,110.501 155.461 C 111.041 155.461,112.908 156.438,112.908 156.720 C 112.908 156.850,113.045 157.032,113.212 157.125 C 113.594 157.339,113.860 158.712,113.721 159.758 C 113.579 160.821,112.264 162.205,111.240 162.368 C 110.857 162.428,110.202 162.564,109.784 162.670 C 109.261 162.802,108.860 162.799,108.495 162.660 C 108.204 162.549,107.678 162.459,107.326 162.459 C 106.578 162.459,105.112 161.727,104.469 161.033 C 103.924 160.446,103.921 160.602,104.504 159.557 C 105.032 158.613,104.917 158.621,106.448 159.416 C 108.046 160.246,111.017 160.137,111.017 159.248 C 111.017 158.788,110.381 158.109,109.951 158.109 C 109.782 158.109,109.377 157.949,109.053 157.754 C 108.729 157.558,108.153 157.343,107.773 157.276 C 107.394 157.208,106.979 157.028,106.852 156.874 C 106.724 156.721,106.524 156.596,106.405 156.596 C 106.128 156.596,105.154 155.696,105.154 155.440 C 105.154 155.333,105.026 155.117,104.870 154.961 C 104.180 154.271,105.034 151.539,106.057 151.166 C 106.236 151.100,106.586 150.891,106.834 150.701 C 107.422 150.250,111.204 150.197,111.962 150.630 M131.369 150.846 C 132.411 151.339,134.090 152.748,134.090 153.130 C 134.090 153.242,134.212 153.436,134.361 153.559 C 135.283 154.325,135.283 158.678,134.361 159.443 C 134.212 159.567,134.090 159.768,134.090 159.889 C 134.090 160.144,132.552 161.702,132.301 161.702 C 132.209 161.702,131.990 161.832,131.814 161.991 C 130.241 163.415,125.679 162.719,123.715 160.755 C 121.043 158.083,121.884 152.162,125.073 151.191 C 125.300 151.123,125.612 150.958,125.768 150.825 C 126.551 150.158,129.942 150.171,131.369 150.846 M151.801 150.758 C 151.994 150.928,152.343 151.125,152.577 151.196 C 152.811 151.267,153.002 151.399,153.002 151.489 C 153.002 151.579,153.151 151.701,153.333 151.760 C 153.515 151.819,153.876 152.186,154.135 152.577 C 154.395 152.967,154.681 153.340,154.771 153.405 C 155.357 153.828,155.949 157.523,155.477 157.815 C 155.382 157.874,155.247 158.262,155.177 158.677 C 155.107 159.092,154.942 159.496,154.810 159.574 C 154.678 159.652,154.462 159.922,154.330 160.174 C 153.966 160.866,152.901 161.714,151.678 162.285 C 150.908 162.645,144.341 162.631,144.111 162.270 C 143.743 161.692,143.878 150.780,144.255 150.549 C 144.828 150.198,151.371 150.379,151.801 150.758 M165.477 150.540 C 165.667 150.642,165.917 150.961,166.033 151.249 C 166.148 151.537,166.624 152.369,167.090 153.097 C 167.556 153.825,168.047 154.647,168.181 154.923 C 168.550 155.687,169.243 155.021,170.031 153.144 C 170.151 152.858,170.320 152.624,170.405 152.624 C 170.491 152.624,170.617 152.369,170.685 152.058 C 170.754 151.746,170.918 151.427,171.051 151.349 C 171.184 151.270,171.393 151.014,171.516 150.780 C 171.742 150.348,172.937 150.178,173.696 150.469 C 174.111 150.629,174.070 151.345,173.617 151.868 C 173.409 152.107,173.239 152.408,173.239 152.535 C 173.239 152.663,173.117 152.868,172.967 152.992 C 172.818 153.116,172.640 153.473,172.571 153.785 C 172.503 154.097,172.332 154.396,172.192 154.449 C 172.052 154.503,171.884 154.794,171.817 155.096 C 171.751 155.399,171.617 155.695,171.519 155.755 C 171.422 155.816,171.217 156.136,171.065 156.467 C 170.912 156.798,170.711 157.196,170.618 157.352 C 170.040 158.316,169.835 159.178,169.835 160.631 C 169.835 162.402,169.697 162.648,168.704 162.648 C 167.400 162.648,167.187 162.308,167.184 160.226 C 167.182 158.991,167.093 158.238,166.912 157.920 C 166.763 157.660,166.518 157.181,166.366 156.855 C 166.215 156.530,165.997 156.206,165.882 156.135 C 165.768 156.064,165.674 155.854,165.674 155.668 C 165.674 155.482,165.504 155.176,165.296 154.988 C 165.087 154.800,164.917 154.494,164.917 154.308 C 164.917 154.122,164.823 153.912,164.709 153.842 C 164.594 153.771,164.379 153.446,164.230 153.121 C 164.081 152.796,163.760 152.175,163.517 151.742 C 162.867 150.584,164.122 149.815,165.477 150.540 M202.700 150.649 C 203.405 151.142,203.221 152.737,202.417 153.116 C 202.232 153.204,201.017 153.320,199.716 153.375 L 197.352 153.475 197.295 154.463 L 197.238 155.450 199.754 155.503 L 202.270 155.556 202.327 156.768 C 202.399 158.298,202.411 158.291,199.689 158.295 C 197.123 158.298,197.259 158.178,197.255 160.441 C 197.253 161.291,197.174 162.109,197.079 162.260 C 196.859 162.607,194.720 162.759,193.995 162.480 L 193.475 162.279 193.475 156.515 C 193.475 151.226,193.502 150.736,193.806 150.559 C 194.391 150.218,202.198 150.297,202.700 150.649 M219.574 150.630 C 219.835 150.778,220.312 151.023,220.635 151.173 C 221.239 151.455,222.790 152.947,222.790 153.247 C 222.790 153.340,222.960 153.632,223.168 153.896 C 223.651 154.511,223.723 158.076,223.268 158.865 C 223.118 159.125,222.915 159.508,222.818 159.716 C 222.336 160.746,220.038 162.459,219.139 162.459 C 218.885 162.459,218.326 162.582,217.897 162.734 C 217.217 162.973,217.003 162.974,216.218 162.736 C 215.724 162.586,215.106 162.459,214.846 162.455 C 214.038 162.441,211.442 160.537,211.442 159.958 C 211.442 159.848,211.315 159.664,211.159 159.548 C 210.165 158.811,210.157 154.184,211.148 153.459 C 211.310 153.341,211.442 153.162,211.442 153.062 C 211.442 151.303,217.550 149.476,219.574 150.630 M240.474 150.855 C 241.626 151.465,242.251 152.107,242.395 152.828 C 242.455 153.127,242.622 153.470,242.765 153.589 C 243.135 153.896,243.118 155.906,242.742 156.217 C 242.586 156.347,242.459 156.563,242.459 156.697 C 242.459 156.832,242.169 157.240,241.814 157.605 C 240.964 158.481,240.843 158.903,241.321 159.336 C 241.531 159.525,241.702 159.753,241.702 159.842 C 241.702 159.931,242.002 160.430,242.368 160.952 C 243.350 162.348,243.129 162.648,241.117 162.648 C 239.440 162.648,238.657 162.151,238.385 160.912 C 238.321 160.618,238.187 160.378,238.089 160.378 C 237.991 160.378,237.828 160.161,237.726 159.895 C 237.563 159.465,237.452 159.417,236.738 159.469 L 235.934 159.527 235.882 160.757 C 235.814 162.366,235.508 162.648,233.832 162.648 C 231.793 162.648,231.867 162.883,231.871 156.454 C 231.872 153.463,231.936 150.923,232.012 150.809 C 232.481 150.106,239.130 150.143,240.474 150.855 M265.266 150.499 C 265.473 150.638,265.824 151.243,266.351 152.365 C 266.503 152.690,266.722 153.014,266.836 153.085 C 266.951 153.156,267.045 153.363,267.045 153.546 C 267.045 153.728,267.300 154.122,267.612 154.421 C 268.134 154.921,268.180 154.933,268.180 154.576 C 268.180 154.363,268.338 153.985,268.532 153.737 C 268.726 153.489,268.944 153.095,269.017 152.861 C 269.091 152.626,269.221 152.435,269.307 152.435 C 269.392 152.435,269.519 152.209,269.588 151.934 C 269.916 150.628,271.837 149.883,273.365 150.469 C 273.789 150.632,273.740 151.551,273.286 151.962 C 273.078 152.150,272.908 152.450,272.908 152.628 C 272.908 152.806,272.756 153.154,272.571 153.402 C 272.385 153.650,271.997 154.322,271.708 154.894 C 271.078 156.140,270.867 156.513,270.371 157.254 C 270.071 157.704,269.974 158.254,269.891 159.965 C 269.766 162.547,269.687 162.648,267.788 162.648 C 266.190 162.648,266.158 162.603,266.067 160.249 C 266.015 158.921,265.906 158.217,265.712 157.980 C 265.558 157.791,265.177 157.128,264.867 156.508 C 264.557 155.887,264.196 155.264,264.066 155.123 C 263.936 154.982,263.828 154.766,263.826 154.644 C 263.823 154.521,263.655 154.208,263.452 153.948 C 263.248 153.688,263.080 153.339,263.077 153.174 C 263.075 153.008,262.903 152.718,262.695 152.530 C 262.487 152.341,262.317 152.058,262.317 151.900 C 262.317 151.743,262.185 151.468,262.024 151.290 C 261.379 150.577,264.314 149.861,265.266 150.499 M290.307 150.630 C 290.567 150.778,291.035 151.019,291.348 151.166 C 291.920 151.435,293.333 152.772,293.333 153.044 C 293.333 153.125,293.504 153.362,293.712 153.570 C 293.920 153.778,294.090 154.198,294.090 154.504 C 294.090 154.810,294.175 155.113,294.279 155.177 C 294.383 155.242,294.468 155.837,294.468 156.501 C 294.468 157.165,294.383 157.761,294.279 157.825 C 294.175 157.889,294.090 158.192,294.090 158.498 C 294.090 158.804,293.920 159.225,293.712 159.433 C 293.504 159.641,293.333 159.889,293.333 159.984 C 293.333 160.541,290.714 162.442,289.929 162.455 C 289.669 162.459,289.052 162.586,288.557 162.736 C 287.772 162.974,287.558 162.973,286.878 162.734 C 286.450 162.582,285.893 162.459,285.640 162.459 C 284.752 162.459,281.991 160.409,281.987 159.746 C 281.986 159.659,281.816 159.370,281.608 159.106 C 281.280 158.690,281.229 158.339,281.229 156.501 C 281.229 154.664,281.280 154.312,281.608 153.896 C 281.816 153.632,281.986 153.344,281.986 153.256 C 281.986 151.397,288.209 149.433,290.307 150.630 M306.086 150.652 C 306.335 150.901,306.383 151.533,306.386 154.576 C 306.388 158.240,306.464 159.054,306.802 159.054 C 306.904 159.054,307.278 159.192,307.633 159.360 C 308.360 159.706,309.127 159.519,309.929 158.802 C 310.344 158.431,310.355 158.323,310.355 154.615 C 310.355 151.907,310.420 150.743,310.582 150.582 C 310.896 150.267,313.381 150.295,313.806 150.618 C 314.189 150.909,314.322 158.161,313.948 158.392 C 313.844 158.457,313.759 158.748,313.759 159.040 C 313.759 159.332,313.589 159.787,313.381 160.052 C 313.173 160.316,313.002 160.618,313.002 160.722 C 313.002 160.827,312.726 161.134,312.388 161.404 C 312.050 161.675,311.668 161.983,311.540 162.087 C 311.412 162.192,310.901 162.360,310.405 162.460 C 309.909 162.561,309.195 162.718,308.819 162.809 C 308.344 162.924,307.909 162.897,307.400 162.720 C 306.997 162.579,306.454 162.463,306.194 162.461 C 305.114 162.452,303.909 161.336,302.961 159.466 L 302.416 158.392 302.414 154.572 C 302.411 150.133,302.298 150.369,304.431 150.360 C 305.419 150.356,305.870 150.436,306.086 150.652 M332.497 150.761 C 332.755 151.242,332.628 152.694,332.293 153.097 C 332.121 153.305,331.664 153.381,330.588 153.381 C 328.756 153.381,328.889 153.005,328.889 158.199 C 328.889 163.009,329.036 162.648,327.083 162.648 C 325.457 162.648,325.485 162.732,325.485 157.833 L 325.485 153.750 325.000 153.565 C 324.733 153.464,324.018 153.381,323.412 153.381 C 322.133 153.381,322.080 153.314,322.080 151.695 C 322.080 150.253,321.683 150.355,327.306 150.355 C 332.199 150.355,332.283 150.361,332.497 150.761 M343.989 150.602 C 344.102 150.738,344.219 151.781,344.249 152.919 L 344.303 154.988 346.071 155.043 C 348.376 155.114,348.369 155.121,348.369 152.801 C 348.369 150.530,348.518 150.355,350.453 150.355 C 352.252 150.355,352.151 149.992,352.151 156.501 C 352.151 163.018,352.255 162.648,350.432 162.648 C 348.544 162.648,348.386 162.457,348.324 160.095 L 348.274 158.203 346.241 158.150 L 344.208 158.096 344.208 160.145 C 344.208 162.600,344.175 162.648,342.479 162.648 C 340.545 162.648,340.615 162.883,340.615 156.378 C 340.615 151.695,340.655 150.908,340.912 150.652 C 341.294 150.269,343.681 150.231,343.989 150.602 M29.078 153.018 C 28.681 153.249,28.604 155.508,28.967 156.303 C 29.230 156.881,30.944 156.997,31.893 156.502 C 32.191 156.347,32.605 156.217,32.813 156.213 C 33.694 156.196,34.350 154.146,33.608 153.731 C 33.431 153.632,33.286 153.440,33.286 153.304 C 33.286 152.878,29.732 152.637,29.078 153.018 M89.031 152.917 C 88.862 153.093,88.845 155.750,89.008 156.359 C 89.148 156.883,90.943 156.973,91.846 156.502 C 92.144 156.347,92.520 156.219,92.683 156.219 C 93.650 156.215,94.090 154.148,93.293 153.351 C 92.910 152.967,89.331 152.603,89.031 152.917 M127.376 152.969 C 125.828 153.317,124.634 154.901,124.634 156.605 C 124.634 157.224,124.708 157.730,124.800 157.730 C 124.891 157.730,125.080 158.006,125.219 158.343 C 125.557 159.159,126.283 159.771,127.092 159.924 C 127.456 159.993,127.900 160.125,128.078 160.217 C 128.546 160.458,130.563 159.852,131.097 159.309 C 131.339 159.063,131.693 158.700,131.884 158.503 C 132.761 157.598,132.049 153.570,131.012 153.570 C 130.907 153.570,130.727 153.445,130.612 153.293 C 130.372 152.977,128.276 152.767,127.376 152.969 M146.903 152.944 C 146.487 153.052,146.391 159.554,146.799 159.962 C 147.512 160.675,151.062 160.030,151.941 159.028 C 154.677 155.907,151.277 151.801,146.903 152.944 M235.981 153.486 C 235.903 153.567,235.839 154.214,235.839 154.925 L 235.839 156.217 237.357 156.217 C 238.838 156.217,238.879 156.205,239.074 155.697 C 239.280 155.162,239.186 154.004,238.915 153.733 C 238.703 153.521,236.155 153.307,235.981 153.486 M215.603 153.688 C 214.358 154.096,213.612 156.969,214.468 158.057 C 214.676 158.322,214.846 158.654,214.846 158.796 C 214.846 158.938,214.971 159.054,215.123 159.054 C 215.276 159.054,215.799 159.190,216.286 159.355 C 216.907 159.566,217.291 159.602,217.569 159.475 C 217.788 159.375,218.222 159.219,218.534 159.127 C 220.214 158.631,220.461 155.591,218.945 154.075 C 218.543 153.673,216.405 153.425,215.603 153.688 M286.359 153.693 C 285.727 153.968,284.632 155.741,284.633 156.489 C 284.634 157.485,285.862 159.243,286.556 159.243 C 286.750 159.243,287.066 159.342,287.259 159.463 C 287.535 159.635,287.848 159.606,288.722 159.329 C 290.986 158.610,291.407 155.924,289.566 153.955 C 289.290 153.660,286.888 153.464,286.359 153.693 M71.158 154.389 C 70.924 154.732,70.733 155.110,70.733 155.230 C 70.733 155.351,70.556 155.789,70.339 156.204 C 69.698 157.434,69.845 157.627,71.473 157.692 C 73.091 157.757,73.320 157.626,72.919 156.862 C 72.588 156.231,71.753 154.345,71.652 153.999 C 71.614 153.872,71.392 154.047,71.158 154.389 " stroke="none" fill="#fbfbfb" fill-rule="evenodd"></path><path id="path3" d="M26.903 150.858 C 26.450 151.041,26.574 161.828,27.032 162.074 C 28.053 162.620,28.369 162.258,28.369 160.539 C 28.369 158.793,28.487 158.676,30.244 158.676 L 31.728 158.676 32.271 159.382 C 32.923 160.231,33.207 160.685,33.509 161.357 C 33.871 162.162,35.083 162.555,35.533 162.013 C 35.696 161.816,35.628 161.585,35.240 161.020 C 34.962 160.615,34.537 159.995,34.294 159.643 C 33.804 158.929,33.734 158.409,34.090 158.122 C 35.098 157.306,35.404 156.909,35.650 156.100 C 36.377 153.704,35.555 151.859,33.428 151.112 C 32.390 150.747,27.637 150.562,26.903 150.858 M46.383 150.854 C 46.202 150.930,46.147 152.222,46.147 156.399 L 46.147 161.845 46.736 162.090 C 47.758 162.513,47.936 162.226,47.990 160.074 C 48.065 157.085,47.772 157.352,50.985 157.352 C 54.613 157.352,54.468 157.252,54.468 159.780 C 54.468 161.928,54.587 162.270,55.334 162.270 C 56.148 162.270,56.179 162.034,56.126 156.289 L 56.076 150.827 55.319 150.827 L 54.563 150.827 54.510 153.141 C 54.444 156.009,54.636 155.867,50.925 155.797 L 48.132 155.745 48.038 153.286 L 47.943 150.827 47.281 150.791 C 46.917 150.770,46.513 150.799,46.383 150.854 M70.498 151.158 C 70.156 151.681,69.031 154.226,69.031 154.477 C 69.031 154.576,68.903 154.764,68.747 154.894 C 68.591 155.023,68.463 155.243,68.463 155.382 C 68.463 155.522,68.165 156.263,67.801 157.030 C 67.437 157.797,67.139 158.483,67.139 158.554 C 67.139 158.626,66.799 159.404,66.383 160.284 C 65.488 162.177,65.513 162.011,66.099 162.158 C 66.845 162.345,67.471 162.103,67.603 161.575 C 67.669 161.316,67.932 160.770,68.190 160.363 L 68.657 159.622 71.406 159.622 C 74.362 159.622,75.083 159.874,75.083 160.909 C 75.083 161.383,75.916 162.270,76.361 162.270 C 77.227 162.270,77.372 161.870,76.873 160.851 C 76.618 160.331,76.409 159.836,76.408 159.752 C 76.407 159.667,76.184 159.114,75.913 158.523 C 75.460 157.536,75.203 156.960,74.377 155.083 C 72.303 150.367,72.537 150.733,71.600 150.733 C 70.954 150.733,70.716 150.825,70.498 151.158 M86.809 156.386 L 86.809 162.039 87.240 162.148 C 88.240 162.399,88.509 162.133,88.529 160.876 C 88.565 158.715,88.480 158.791,91.035 158.631 C 94.498 158.414,95.887 157.284,95.887 154.686 C 95.887 151.734,94.304 150.733,89.638 150.733 L 86.809 150.733 86.809 156.386 M106.950 151.162 C 106.534 151.385,106.086 151.698,105.954 151.859 C 104.210 153.981,105.304 156.170,108.558 157.070 C 111.825 157.973,112.427 160.139,109.562 160.680 C 108.899 160.806,106.609 160.148,106.068 159.677 C 105.210 158.930,104.192 160.142,105.032 160.910 C 107.834 163.474,113.381 162.244,113.381 159.059 C 113.381 157.410,112.812 156.845,110.025 155.726 C 107.484 154.706,106.867 154.168,107.256 153.313 C 107.724 152.286,109.921 152.110,111.737 152.954 C 112.452 153.287,112.641 153.176,112.900 152.271 C 113.061 151.712,113.032 151.643,112.566 151.454 C 112.286 151.340,111.789 151.131,111.461 150.990 C 110.493 150.572,107.867 150.673,106.950 151.162 M126.283 151.144 C 124.137 151.891,122.364 154.315,122.364 156.501 C 122.364 158.334,123.948 161.002,125.296 161.436 C 125.504 161.503,125.829 161.694,126.019 161.861 C 126.688 162.449,130.386 162.293,131.498 161.630 C 136.961 158.370,134.836 150.663,128.497 150.748 C 127.881 150.756,126.884 150.934,126.283 151.144 M144.618 150.859 C 144.548 150.928,144.492 153.436,144.492 156.431 C 144.492 162.988,144.104 162.365,148.093 162.224 C 151.144 162.115,151.698 161.958,153.145 160.791 C 153.897 160.185,154.124 159.882,154.735 158.676 C 155.158 157.841,155.064 154.650,154.597 154.011 C 154.382 153.716,154.155 153.338,154.093 153.170 C 153.870 152.569,152.304 151.497,151.098 151.119 C 149.881 150.738,144.938 150.539,144.618 150.859 M163.732 150.846 C 163.592 150.986,163.762 151.491,164.077 151.868 C 164.207 152.024,164.582 152.681,164.909 153.328 C 165.236 153.975,165.584 154.555,165.683 154.616 C 165.782 154.677,165.863 154.882,165.863 155.071 C 165.863 155.260,165.970 155.503,166.100 155.611 C 166.889 156.267,167.660 158.396,167.754 160.182 C 167.845 161.916,167.866 161.984,168.347 162.153 C 169.324 162.495,169.456 162.271,169.456 160.274 C 169.456 158.538,169.486 158.405,170.118 157.327 C 170.482 156.705,170.780 156.155,170.780 156.103 C 170.780 156.051,171.280 155.141,171.890 154.080 C 172.500 153.019,173.059 151.960,173.132 151.726 C 173.205 151.492,173.344 151.300,173.441 151.300 C 173.538 151.300,173.617 151.173,173.617 151.017 C 173.617 150.807,173.398 150.733,172.776 150.733 C 171.882 150.733,171.953 150.666,171.058 152.340 C 170.891 152.652,170.548 153.248,170.296 153.664 C 170.044 154.080,169.709 154.694,169.552 155.029 C 169.057 156.086,168.309 156.255,167.929 155.395 C 167.830 155.171,167.370 154.392,166.906 153.664 C 166.443 152.936,165.970 152.128,165.855 151.868 C 165.432 150.905,164.245 150.334,163.732 150.846 M194.172 150.855 C 193.928 151.100,194.021 161.794,194.270 162.043 C 194.568 162.341,195.968 162.334,196.353 162.033 C 196.579 161.856,196.674 161.356,196.731 160.033 C 196.826 157.869,196.749 157.926,199.551 157.923 C 202.043 157.919,202.236 157.825,202.140 156.656 L 202.080 155.934 199.567 155.839 C 196.667 155.730,196.623 155.704,196.765 154.155 C 196.885 152.842,196.931 152.820,199.622 152.813 C 202.307 152.806,202.408 152.763,202.329 151.660 L 202.270 150.827 198.286 150.776 C 196.095 150.748,194.244 150.784,194.172 150.855 M214.314 151.200 C 210.600 152.771,209.656 157.528,212.463 160.529 C 214.683 162.901,219.303 162.902,221.598 160.530 C 226.198 155.778,220.561 148.558,214.314 151.200 M232.750 150.859 C 232.508 151.101,232.605 161.796,232.851 162.043 C 233.130 162.321,234.408 162.340,234.906 162.074 C 235.208 161.912,235.272 161.671,235.272 160.693 C 235.272 159.247,235.443 159.054,236.725 159.054 C 237.823 159.054,237.920 159.148,239.097 161.324 C 239.556 162.173,239.561 162.175,240.677 162.224 C 242.256 162.293,242.691 161.792,241.825 160.899 C 240.641 159.678,240.403 158.548,241.155 157.717 C 242.249 156.509,242.354 156.248,242.332 154.800 C 242.285 151.666,240.782 150.733,235.781 150.733 C 234.183 150.733,232.820 150.790,232.750 150.859 M262.604 150.917 C 262.492 151.098,263.248 152.741,264.130 154.232 C 264.376 154.648,264.656 155.158,264.751 155.366 C 264.847 155.574,265.246 156.298,265.639 156.974 C 266.311 158.131,266.358 158.316,266.436 160.125 C 266.528 162.243,266.540 162.261,267.928 162.267 C 269.070 162.272,269.125 162.188,269.125 160.468 C 269.125 158.909,269.134 158.880,270.298 156.659 C 270.942 155.428,271.669 154.038,271.913 153.570 C 272.157 153.102,272.565 152.344,272.821 151.885 C 273.460 150.740,273.455 150.733,271.962 150.733 C 271.077 150.733,270.638 150.806,270.638 150.954 C 270.638 151.076,270.522 151.310,270.380 151.474 C 270.238 151.639,269.718 152.539,269.224 153.475 C 268.731 154.411,268.253 155.257,268.161 155.354 C 267.956 155.574,267.100 154.804,266.931 154.249 C 266.865 154.031,266.703 153.726,266.571 153.570 C 266.439 153.414,266.063 152.778,265.735 152.158 C 265.407 151.537,265.036 150.964,264.910 150.884 C 264.578 150.673,262.738 150.700,262.604 150.917 M284.911 151.287 C 280.518 153.313,280.335 159.091,284.583 161.635 C 285.861 162.400,289.557 162.440,290.780 161.702 C 297.600 157.586,292.165 147.941,284.911 151.287 M303.215 150.858 C 302.908 150.982,302.888 156.705,303.189 158.434 C 303.400 159.647,304.556 161.513,305.096 161.513 C 305.215 161.513,305.452 161.638,305.621 161.792 C 306.542 162.625,310.307 162.360,311.650 161.366 C 313.360 160.101,313.475 159.694,313.475 154.934 L 313.475 150.827 312.151 150.827 L 310.827 150.827 310.733 154.799 C 310.629 159.157,310.646 159.087,309.593 159.624 C 308.616 160.123,307.855 160.098,306.969 159.539 C 305.929 158.882,305.816 158.379,305.816 154.413 C 305.816 151.441,305.774 150.947,305.516 150.848 C 305.165 150.713,303.557 150.720,303.215 150.858 M322.347 150.993 C 322.290 151.140,322.271 151.589,322.304 151.990 L 322.364 152.719 323.907 152.773 C 325.959 152.846,325.847 152.569,325.907 157.746 L 325.957 162.175 327.061 162.232 C 328.756 162.320,328.700 162.479,328.700 157.628 C 328.700 152.438,328.567 152.813,330.399 152.813 C 332.097 152.813,332.348 152.643,332.258 151.550 L 332.199 150.827 327.324 150.777 C 323.267 150.735,322.432 150.771,322.347 150.993 M341.227 156.454 L 341.277 162.175 342.112 162.235 C 343.815 162.356,343.830 162.338,343.830 160.114 C 343.830 157.619,343.759 157.679,346.571 157.761 C 349.201 157.838,349.119 157.758,349.122 160.233 C 349.126 162.338,349.220 162.440,350.927 162.184 L 351.779 162.056 351.729 156.442 L 351.678 150.827 350.449 150.827 L 349.220 150.827 349.125 152.971 C 349.006 155.681,349.039 155.650,346.248 155.650 C 343.778 155.650,343.830 155.713,343.830 152.706 L 343.830 150.733 342.503 150.733 L 341.176 150.733 341.227 156.454 M32.339 152.470 C 34.721 153.020,35.039 155.683,32.845 156.704 C 31.741 157.218,29.026 157.367,28.596 156.936 C 28.311 156.652,28.286 153.133,28.565 152.612 C 28.800 152.171,30.731 152.099,32.339 152.470 M92.481 152.527 C 94.668 153.109,94.907 155.613,92.874 156.643 C 91.722 157.226,89.064 157.410,88.765 156.927 C 88.526 156.541,88.459 153.330,88.678 152.766 C 88.920 152.142,90.630 152.034,92.481 152.527 M129.874 152.531 C 131.899 153.132,133.294 155.415,132.796 157.313 C 131.882 160.797,127.687 161.925,125.386 159.304 C 122.477 155.992,125.610 151.264,129.874 152.531 M150.336 152.522 C 154.195 153.549,154.367 158.986,150.587 160.445 C 149.468 160.877,146.473 160.886,146.309 160.457 C 146.081 159.863,146.181 152.713,146.421 152.473 C 146.735 152.159,149.081 152.188,150.336 152.522 M218.061 153.208 C 221.752 154.609,220.919 160.000,217.012 160.000 C 213.256 160.000,212.360 154.467,215.916 153.228 C 216.524 153.016,217.021 152.836,217.021 152.828 C 217.021 152.820,217.489 152.991,218.061 153.208 M238.646 153.176 C 240.012 153.873,240.186 155.996,238.920 156.494 C 238.069 156.828,235.921 156.840,235.593 156.512 C 235.222 156.140,235.134 153.803,235.468 153.179 C 235.742 152.667,237.645 152.666,238.646 153.176 M288.948 153.278 C 292.474 154.437,291.427 160.034,287.691 159.992 C 285.305 159.965,283.264 156.511,284.698 154.927 C 284.871 154.736,285.012 154.492,285.012 154.385 C 285.012 153.970,287.228 152.770,287.754 152.900 C 287.858 152.926,288.395 153.096,288.948 153.278 M72.293 154.313 C 72.579 154.928,72.813 155.492,72.813 155.567 C 72.813 155.642,73.001 156.079,73.231 156.539 C 73.870 157.818,73.646 158.014,71.543 158.014 C 69.523 158.014,69.107 157.810,69.500 157.011 C 70.148 155.694,70.544 154.733,70.544 154.473 C 70.544 154.198,71.421 153.189,71.657 153.193 C 71.721 153.195,72.007 153.698,72.293 154.313 " stroke="none" fill="#2f2f2f" fill-rule="evenodd"></path><path id="path4" d="M191.678 15.703 C 190.846 15.891,189.790 16.051,189.331 16.060 C 188.872 16.069,188.064 16.203,187.534 16.358 C 186.576 16.639,185.238 16.992,183.262 17.488 C 181.945 17.819,180.663 18.270,180.018 18.631 C 179.742 18.786,179.337 18.913,179.118 18.913 C 178.495 18.913,172.845 21.631,171.196 22.724 C 170.749 23.020,170.323 23.263,170.251 23.263 C 170.178 23.263,169.628 23.603,169.029 24.019 C 168.430 24.435,167.893 24.775,167.837 24.775 C 167.780 24.775,167.164 25.225,166.467 25.774 C 165.771 26.323,164.988 26.911,164.728 27.081 C 164.468 27.251,163.787 27.820,163.215 28.346 C 162.643 28.872,161.749 29.662,161.229 30.101 C 160.709 30.540,159.791 31.458,159.188 32.140 C 158.585 32.822,157.587 33.927,156.970 34.594 C 156.353 35.261,155.612 36.154,155.323 36.578 C 155.035 37.002,154.374 37.914,153.853 38.605 C 153.333 39.295,152.767 40.104,152.596 40.403 C 152.424 40.701,151.926 41.541,151.489 42.270 C 151.052 42.998,150.618 43.764,150.525 43.972 C 150.432 44.180,150.274 44.478,150.174 44.634 C 150.075 44.790,149.598 45.768,149.116 46.809 C 148.634 47.849,148.120 48.926,147.973 49.202 C 147.827 49.478,147.704 49.818,147.700 49.958 C 147.697 50.098,147.530 50.553,147.329 50.969 C 147.128 51.385,146.960 51.879,146.957 52.066 C 146.953 52.253,146.811 52.677,146.640 53.007 C 146.309 53.646,145.960 54.889,145.522 56.981 C 145.375 57.687,145.167 58.428,145.060 58.627 C 144.953 58.827,144.818 59.525,144.758 60.180 C 144.699 60.835,144.509 62.009,144.335 62.790 C 143.872 64.866,143.873 75.656,144.335 77.730 C 144.509 78.511,144.693 79.628,144.745 80.213 C 144.796 80.798,144.969 81.692,145.129 82.199 C 145.289 82.706,145.670 84.057,145.976 85.201 C 146.537 87.301,147.502 90.207,147.986 91.253 C 148.131 91.565,148.642 92.671,149.123 93.712 C 149.604 94.752,150.076 95.730,150.173 95.887 C 150.270 96.043,150.478 96.426,150.635 96.738 C 150.792 97.050,151.104 97.603,151.329 97.967 C 151.553 98.331,151.832 98.799,151.949 99.007 C 152.557 100.093,153.812 101.939,153.943 101.939 C 154.025 101.939,154.144 102.087,154.207 102.270 C 154.374 102.759,155.613 104.403,156.683 105.559 C 157.200 106.116,158.119 107.147,158.726 107.849 C 161.048 110.536,167.660 115.925,170.213 117.212 C 170.473 117.344,170.941 117.620,171.253 117.827 C 171.565 118.035,172.076 118.333,172.388 118.490 C 172.700 118.648,173.083 118.854,173.239 118.949 C 173.516 119.118,176.745 120.638,177.872 121.130 C 179.053 121.646,180.538 122.175,180.807 122.176 C 180.961 122.177,181.343 122.314,181.655 122.481 C 182.187 122.766,182.746 122.922,185.655 123.601 C 186.294 123.750,187.031 123.953,187.292 124.052 C 187.553 124.151,188.306 124.285,188.966 124.349 C 189.626 124.414,190.761 124.610,191.489 124.786 C 193.427 125.255,204.287 125.257,206.241 124.790 C 206.969 124.615,208.161 124.387,208.889 124.282 C 210.603 124.036,212.672 123.562,213.574 123.210 C 213.966 123.057,214.476 122.931,214.708 122.930 C 214.940 122.930,215.343 122.820,215.603 122.686 C 215.863 122.552,216.799 122.204,217.683 121.911 C 218.567 121.619,219.674 121.206,220.142 120.993 C 221.777 120.248,225.538 118.361,226.288 117.910 C 226.704 117.659,227.258 117.346,227.518 117.214 C 228.049 116.944,230.139 115.571,230.556 115.217 C 230.705 115.090,231.338 114.606,231.962 114.140 C 234.713 112.089,237.068 109.935,239.724 107.040 C 240.786 105.883,243.593 102.396,243.593 102.234 C 243.593 102.177,243.881 101.754,244.233 101.293 C 244.585 100.832,245.154 99.959,245.497 99.353 C 245.841 98.747,246.178 98.208,246.247 98.156 C 246.316 98.104,246.491 97.833,246.637 97.555 C 247.247 96.392,248.871 93.076,249.260 92.199 C 249.491 91.678,249.758 91.083,249.854 90.875 C 249.951 90.667,250.109 90.241,250.206 89.929 C 250.303 89.617,250.609 88.766,250.884 88.038 C 251.160 87.310,251.469 86.374,251.571 85.957 C 251.673 85.541,251.873 84.775,252.016 84.255 C 252.479 82.574,253.021 79.943,253.224 78.392 C 253.332 77.560,253.503 76.454,253.603 75.934 C 253.906 74.348,253.845 65.558,253.520 64.023 C 253.366 63.297,253.188 62.148,253.124 61.470 C 253.012 60.290,252.592 58.294,252.027 56.265 C 251.883 55.745,251.678 54.979,251.573 54.563 C 251.397 53.864,250.218 50.529,249.602 48.983 C 249.457 48.619,249.035 47.683,248.664 46.903 C 248.293 46.123,247.935 45.357,247.868 45.201 C 247.801 45.045,247.541 44.577,247.291 44.161 C 247.040 43.745,246.701 43.149,246.538 42.837 C 246.375 42.525,246.093 42.043,245.911 41.766 C 245.728 41.489,245.302 40.808,244.963 40.253 C 244.624 39.698,244.054 38.861,243.695 38.392 C 243.336 37.924,242.787 37.169,242.473 36.714 C 241.414 35.177,237.855 31.395,235.066 28.842 C 233.905 27.779,230.796 25.402,229.220 24.372 C 228.251 23.738,227.778 23.457,226.370 22.673 C 226.067 22.505,225.713 22.283,225.581 22.181 C 225.237 21.914,224.075 21.323,222.128 20.427 C 221.191 19.996,220.076 19.479,219.648 19.278 C 219.221 19.077,218.708 18.913,218.508 18.913 C 218.309 18.913,217.978 18.797,217.773 18.657 C 217.440 18.429,215.878 17.916,213.050 17.106 C 211.118 16.553,209.040 16.115,207.783 15.995 C 207.071 15.928,206.011 15.748,205.427 15.596 C 203.760 15.161,193.734 15.240,191.678 15.703 M203.036 52.277 C 203.433 52.567,203.143 53.263,201.065 57.021 C 200.662 57.749,199.996 58.983,199.585 59.764 C 198.243 62.308,196.830 64.949,196.396 65.721 C 196.162 66.137,195.658 67.073,195.275 67.801 C 194.892 68.530,194.367 69.508,194.107 69.976 C 193.847 70.444,193.078 71.891,192.399 73.191 C 191.719 74.492,191.078 75.661,190.974 75.790 C 190.870 75.918,190.835 76.152,190.895 76.310 C 191.046 76.703,202.006 76.744,202.331 76.352 C 202.457 76.200,202.554 74.469,202.590 71.711 C 202.658 66.496,202.354 66.957,205.733 66.953 C 209.291 66.949,208.983 66.496,208.983 71.742 C 208.983 77.031,208.726 76.596,211.851 76.596 C 215.132 76.596,215.083 76.543,215.001 79.960 C 214.928 82.998,215.101 82.830,212.044 82.834 C 208.701 82.838,208.983 82.391,208.983 87.679 C 208.983 93.334,209.268 92.861,205.867 92.861 C 202.279 92.861,202.553 93.293,202.553 87.629 C 202.553 84.323,202.495 83.200,202.317 83.084 C 202.187 83.000,197.868 82.889,192.719 82.837 L 183.357 82.742 183.304 80.114 C 183.247 77.246,183.174 77.526,184.655 74.894 C 184.918 74.426,185.428 73.489,185.789 72.813 C 186.149 72.137,186.659 71.201,186.922 70.733 C 187.184 70.265,187.668 69.371,187.997 68.747 C 188.325 68.123,188.785 67.272,189.019 66.856 C 189.253 66.440,189.763 65.504,190.154 64.775 C 190.544 64.047,191.052 63.111,191.282 62.695 C 191.512 62.279,192.158 61.087,192.719 60.047 C 193.279 59.007,193.929 57.816,194.164 57.400 C 194.398 56.983,194.839 56.175,195.144 55.603 C 195.449 55.031,195.924 54.137,196.201 53.617 C 197.022 52.075,197.160 52.018,200.106 52.014 C 202.024 52.011,202.762 52.077,203.036 52.277 M26.430 150.559 C 25.848 150.898,25.932 161.942,26.520 162.353 C 27.747 163.213,28.747 162.609,28.747 161.007 C 28.747 160.039,28.822 159.701,29.078 159.507 C 29.454 159.221,31.773 159.146,31.773 159.419 C 31.773 159.516,31.907 159.729,32.071 159.893 C 32.235 160.057,32.607 160.638,32.897 161.183 C 33.517 162.351,34.025 162.669,35.158 162.602 C 36.370 162.531,36.519 162.157,35.775 161.056 C 35.446 160.569,35.177 160.103,35.177 160.020 C 35.177 159.937,35.007 159.715,34.799 159.527 C 34.237 159.019,34.335 158.556,35.177 157.730 C 35.593 157.323,35.934 156.826,35.934 156.626 C 35.934 156.427,36.061 156.158,36.217 156.028 C 37.165 155.242,35.968 151.763,34.515 151.083 C 34.307 150.985,33.924 150.783,33.664 150.633 C 33.095 150.304,26.975 150.242,26.430 150.559 M46.004 150.573 C 45.826 150.750,45.768 152.221,45.768 156.532 C 45.768 162.899,45.715 162.648,47.064 162.648 C 48.206 162.648,48.227 162.605,48.227 160.353 C 48.227 157.859,48.152 157.920,51.250 157.920 C 54.057 157.920,53.901 157.798,53.901 159.985 C 53.901 162.292,54.191 162.749,55.559 162.595 C 56.753 162.461,56.731 162.576,56.735 156.366 C 56.738 150.038,56.815 150.355,55.266 150.355 C 54.054 150.355,53.901 150.680,53.901 153.259 L 53.901 155.471 51.111 155.419 L 48.322 155.366 48.227 152.908 L 48.132 150.449 47.186 150.394 C 46.613 150.360,46.146 150.431,46.004 150.573 M70.095 150.928 C 69.822 151.253,69.598 151.640,69.598 151.788 C 69.598 151.937,69.428 152.376,69.220 152.764 C 69.012 153.152,68.842 153.611,68.842 153.783 C 68.842 153.956,68.714 154.146,68.558 154.206 C 68.402 154.265,68.274 154.492,68.274 154.708 C 68.274 154.925,68.114 155.417,67.919 155.802 C 67.570 156.489,67.077 157.559,66.334 159.243 C 66.128 159.712,65.799 160.409,65.603 160.794 C 64.950 162.080,65.217 162.650,66.468 162.645 C 67.486 162.641,68.042 162.070,68.535 160.520 C 68.813 159.646,74.704 160.148,74.704 161.045 C 74.704 162.010,75.534 162.648,76.787 162.648 C 77.731 162.648,78.074 162.152,77.673 161.368 C 77.426 160.882,77.194 160.374,76.273 158.298 C 76.066 157.830,75.713 157.055,75.489 156.575 C 75.266 156.096,75.083 155.574,75.083 155.416 C 75.083 155.258,74.961 155.028,74.811 154.904 C 74.662 154.780,74.482 154.408,74.412 154.077 C 74.342 153.746,74.175 153.348,74.043 153.191 C 73.910 153.035,73.742 152.630,73.670 152.291 C 73.598 151.952,73.439 151.565,73.318 151.432 C 73.196 151.299,73.003 151.023,72.888 150.819 C 72.498 150.128,70.710 150.197,70.095 150.928 M86.667 150.480 C 86.332 150.615,86.323 162.087,86.657 162.421 C 86.782 162.546,87.233 162.648,87.660 162.648 C 88.714 162.648,88.888 162.408,88.892 160.955 C 88.896 159.339,88.928 159.305,90.591 159.184 C 94.838 158.874,96.092 157.910,96.228 154.854 C 96.311 153.012,95.675 151.566,94.584 151.115 C 94.312 151.002,93.877 150.786,93.617 150.635 C 93.153 150.365,87.276 150.234,86.667 150.480 M106.834 150.701 C 106.586 150.891,106.236 151.100,106.057 151.166 C 105.034 151.539,104.180 154.271,104.870 154.961 C 105.026 155.117,105.154 155.333,105.154 155.440 C 105.154 155.696,106.128 156.596,106.405 156.596 C 106.524 156.596,106.724 156.721,106.852 156.874 C 106.979 157.028,107.394 157.208,107.773 157.276 C 108.153 157.343,108.729 157.558,109.053 157.754 C 109.377 157.949,109.782 158.109,109.951 158.109 C 110.381 158.109,111.017 158.788,111.017 159.248 C 111.017 160.137,108.046 160.246,106.448 159.416 C 104.917 158.621,105.032 158.613,104.504 159.557 C 103.921 160.602,103.924 160.446,104.469 161.033 C 105.112 161.727,106.578 162.459,107.326 162.459 C 107.678 162.459,108.204 162.549,108.495 162.660 C 108.860 162.799,109.261 162.802,109.784 162.670 C 110.202 162.564,110.857 162.428,111.240 162.368 C 112.264 162.205,113.579 160.821,113.721 159.758 C 113.860 158.712,113.594 157.339,113.212 157.125 C 113.045 157.032,112.908 156.850,112.908 156.720 C 112.908 156.438,111.041 155.461,110.501 155.461 C 110.290 155.461,110.020 155.344,109.902 155.202 C 109.784 155.059,109.386 154.893,109.019 154.834 C 107.659 154.613,107.236 153.144,108.475 152.943 C 109.403 152.792,111.169 153.014,111.417 153.312 C 111.670 153.618,112.908 153.660,112.908 153.363 C 112.908 153.250,113.078 152.940,113.286 152.676 C 113.838 151.974,113.766 151.517,113.050 151.185 C 112.712 151.028,112.222 150.778,111.962 150.630 C 111.204 150.197,107.422 150.250,106.834 150.701 M126.430 150.491 C 126.222 150.541,125.924 150.692,125.768 150.825 C 125.612 150.958,125.300 151.123,125.073 151.191 C 121.884 152.162,121.043 158.083,123.715 160.755 C 125.679 162.719,130.241 163.415,131.814 161.991 C 131.990 161.832,132.209 161.702,132.301 161.702 C 132.552 161.702,134.090 160.144,134.090 159.889 C 134.090 159.768,134.212 159.567,134.361 159.443 C 135.283 158.678,135.283 154.325,134.361 153.559 C 134.212 153.436,134.090 153.242,134.090 153.130 C 134.090 151.507,129.191 149.818,126.430 150.491 M144.255 150.549 C 143.878 150.780,143.743 161.692,144.111 162.270 C 144.341 162.631,150.908 162.645,151.678 162.285 C 152.901 161.714,153.966 160.866,154.330 160.174 C 154.462 159.922,154.678 159.652,154.810 159.574 C 154.942 159.496,155.107 159.092,155.177 158.677 C 155.247 158.262,155.382 157.874,155.477 157.815 C 155.949 157.523,155.357 153.828,154.771 153.405 C 154.681 153.340,154.395 152.967,154.135 152.577 C 153.876 152.186,153.515 151.819,153.333 151.760 C 153.151 151.701,153.002 151.579,153.002 151.489 C 153.002 151.399,152.811 151.267,152.577 151.196 C 152.343 151.125,151.994 150.928,151.801 150.758 C 151.371 150.379,144.828 150.198,144.255 150.549 M163.375 150.655 C 163.101 150.928,163.113 151.023,163.517 151.742 C 163.760 152.175,164.081 152.796,164.230 153.121 C 164.379 153.446,164.594 153.771,164.709 153.842 C 164.823 153.912,164.917 154.122,164.917 154.308 C 164.917 154.494,165.087 154.800,165.296 154.988 C 165.504 155.176,165.674 155.482,165.674 155.668 C 165.674 155.854,165.768 156.064,165.882 156.135 C 165.997 156.206,166.215 156.530,166.366 156.855 C 166.518 157.181,166.763 157.660,166.912 157.920 C 167.093 158.238,167.182 158.991,167.184 160.226 C 167.187 162.308,167.400 162.648,168.704 162.648 C 169.697 162.648,169.835 162.402,169.835 160.631 C 169.835 159.178,170.040 158.316,170.618 157.352 C 170.711 157.196,170.912 156.798,171.065 156.467 C 171.217 156.136,171.422 155.816,171.519 155.755 C 171.617 155.695,171.751 155.399,171.817 155.096 C 171.884 154.794,172.052 154.503,172.192 154.449 C 172.332 154.396,172.503 154.097,172.571 153.785 C 172.640 153.473,172.818 153.116,172.967 152.992 C 173.117 152.868,173.239 152.663,173.239 152.535 C 173.239 152.408,173.409 152.107,173.617 151.868 C 174.070 151.345,174.111 150.629,173.696 150.469 C 172.937 150.178,171.742 150.348,171.516 150.780 C 171.393 151.014,171.184 151.270,171.051 151.349 C 170.918 151.427,170.754 151.746,170.685 152.058 C 170.617 152.369,170.491 152.624,170.405 152.624 C 170.320 152.624,170.151 152.858,170.031 153.144 C 169.243 155.021,168.550 155.687,168.181 154.923 C 168.047 154.647,167.556 153.825,167.090 153.097 C 166.624 152.369,166.148 151.537,166.033 151.249 C 165.674 150.352,164.042 149.987,163.375 150.655 M193.806 150.559 C 193.502 150.736,193.475 151.226,193.475 156.515 L 193.475 162.279 193.995 162.480 C 194.720 162.759,196.859 162.607,197.079 162.260 C 197.174 162.109,197.253 161.291,197.255 160.441 C 197.259 158.178,197.123 158.298,199.689 158.295 C 202.411 158.291,202.399 158.298,202.327 156.768 L 202.270 155.556 199.754 155.503 L 197.238 155.450 197.295 154.463 L 197.352 153.475 199.716 153.375 C 202.791 153.245,203.121 153.073,203.121 151.607 C 203.121 150.424,202.842 150.354,198.209 150.360 C 195.797 150.364,194.002 150.445,193.806 150.559 M213.916 150.897 C 212.902 151.433,211.442 152.711,211.442 153.062 C 211.442 153.162,211.310 153.341,211.148 153.459 C 210.157 154.184,210.165 158.811,211.159 159.548 C 211.315 159.664,211.442 159.848,211.442 159.958 C 211.442 160.537,214.038 162.441,214.846 162.455 C 215.106 162.459,215.724 162.586,216.218 162.736 C 217.003 162.974,217.217 162.973,217.897 162.734 C 218.326 162.582,218.885 162.459,219.139 162.459 C 220.038 162.459,222.336 160.746,222.818 159.716 C 222.915 159.508,223.118 159.125,223.268 158.865 C 223.723 158.076,223.651 154.511,223.168 153.896 C 222.960 153.632,222.790 153.340,222.790 153.247 C 222.790 152.947,221.239 151.455,220.635 151.173 C 220.312 151.023,219.835 150.778,219.574 150.630 C 218.632 150.093,215.124 150.258,213.916 150.897 M232.435 150.492 C 231.904 150.695,231.873 151.018,231.871 156.454 C 231.867 162.883,231.793 162.648,233.832 162.648 C 235.508 162.648,235.814 162.366,235.882 160.757 L 235.934 159.527 236.738 159.469 C 237.452 159.417,237.563 159.465,237.726 159.895 C 237.828 160.161,237.991 160.378,238.089 160.378 C 238.187 160.378,238.321 160.618,238.385 160.912 C 238.657 162.151,239.440 162.648,241.117 162.648 C 243.129 162.648,243.350 162.348,242.368 160.952 C 242.002 160.430,241.702 159.931,241.702 159.842 C 241.702 159.753,241.531 159.525,241.321 159.336 C 240.843 158.903,240.964 158.481,241.814 157.605 C 242.169 157.240,242.459 156.832,242.459 156.697 C 242.459 156.563,242.586 156.347,242.742 156.217 C 243.118 155.906,243.135 153.896,242.765 153.589 C 242.622 153.470,242.455 153.127,242.395 152.828 C 242.251 152.107,241.626 151.465,240.474 150.855 C 239.550 150.365,233.487 150.092,232.435 150.492 M262.038 150.661 C 261.761 150.937,261.760 150.998,262.024 151.290 C 262.185 151.468,262.317 151.743,262.317 151.900 C 262.317 152.058,262.487 152.341,262.695 152.530 C 262.903 152.718,263.075 153.008,263.077 153.174 C 263.080 153.339,263.248 153.688,263.452 153.948 C 263.655 154.208,263.823 154.521,263.826 154.644 C 263.828 154.766,263.936 154.982,264.066 155.123 C 264.196 155.264,264.557 155.887,264.867 156.508 C 265.177 157.128,265.558 157.791,265.712 157.980 C 265.906 158.217,266.015 158.921,266.067 160.249 C 266.158 162.603,266.190 162.648,267.788 162.648 C 269.687 162.648,269.766 162.547,269.891 159.965 C 269.974 158.254,270.071 157.704,270.371 157.254 C 270.867 156.513,271.078 156.140,271.708 154.894 C 271.997 154.322,272.385 153.650,272.571 153.402 C 272.756 153.154,272.908 152.806,272.908 152.628 C 272.908 152.450,273.078 152.150,273.286 151.962 C 273.740 151.551,273.789 150.632,273.365 150.469 C 271.837 149.883,269.916 150.628,269.588 151.934 C 269.519 152.209,269.392 152.435,269.307 152.435 C 269.221 152.435,269.091 152.626,269.017 152.861 C 268.944 153.095,268.726 153.489,268.532 153.737 C 268.338 153.985,268.180 154.363,268.180 154.576 C 268.180 154.933,268.134 154.921,267.612 154.421 C 267.300 154.122,267.045 153.728,267.045 153.546 C 267.045 153.363,266.951 153.156,266.836 153.085 C 266.722 153.014,266.503 152.690,266.351 152.365 C 265.824 151.243,265.473 150.638,265.266 150.499 C 264.841 150.214,262.360 150.338,262.038 150.661 M284.635 150.877 C 283.684 151.351,281.986 152.876,281.986 153.256 C 281.986 153.344,281.816 153.632,281.608 153.896 C 281.280 154.312,281.229 154.664,281.229 156.501 C 281.229 158.339,281.280 158.690,281.608 159.106 C 281.816 159.370,281.986 159.659,281.987 159.746 C 281.991 160.409,284.752 162.459,285.640 162.459 C 285.893 162.459,286.450 162.582,286.878 162.734 C 287.558 162.973,287.772 162.974,288.557 162.736 C 289.052 162.586,289.669 162.459,289.929 162.455 C 290.714 162.442,293.333 160.541,293.333 159.984 C 293.333 159.889,293.504 159.641,293.712 159.433 C 293.920 159.225,294.090 158.804,294.090 158.498 C 294.090 158.192,294.175 157.889,294.279 157.825 C 294.383 157.761,294.468 157.165,294.468 156.501 C 294.468 155.837,294.383 155.242,294.279 155.177 C 294.175 155.113,294.090 154.810,294.090 154.504 C 294.090 154.198,293.920 153.778,293.712 153.570 C 293.504 153.362,293.333 153.125,293.333 153.044 C 293.333 152.772,291.920 151.435,291.348 151.166 C 291.035 151.019,290.567 150.778,290.307 150.630 C 289.393 150.109,285.869 150.262,284.635 150.877 M302.742 150.559 C 302.444 150.732,302.412 151.132,302.414 154.572 L 302.416 158.392 302.961 159.466 C 303.909 161.336,305.114 162.452,306.194 162.461 C 306.454 162.463,306.997 162.579,307.400 162.720 C 307.909 162.897,308.344 162.924,308.819 162.809 C 309.195 162.718,309.909 162.561,310.405 162.460 C 310.901 162.360,311.412 162.192,311.540 162.087 C 311.668 161.983,312.050 161.675,312.388 161.404 C 312.726 161.134,313.002 160.827,313.002 160.722 C 313.002 160.618,313.173 160.316,313.381 160.052 C 313.589 159.787,313.759 159.332,313.759 159.040 C 313.759 158.748,313.844 158.457,313.948 158.392 C 314.322 158.161,314.189 150.909,313.806 150.618 C 313.381 150.295,310.896 150.267,310.582 150.582 C 310.420 150.743,310.355 151.907,310.355 154.615 C 310.355 158.323,310.344 158.431,309.929 158.802 C 309.127 159.519,308.360 159.706,307.633 159.360 C 307.278 159.192,306.904 159.054,306.802 159.054 C 306.464 159.054,306.388 158.240,306.386 154.576 C 306.382 150.236,306.436 150.352,304.431 150.360 C 303.684 150.364,302.924 150.453,302.742 150.559 M322.206 150.481 C 322.049 150.638,322.040 152.677,322.195 153.081 C 322.282 153.307,322.582 153.381,323.412 153.381 C 324.018 153.381,324.733 153.464,325.000 153.565 L 325.485 153.750 325.485 157.833 C 325.485 162.732,325.457 162.648,327.083 162.648 C 329.036 162.648,328.889 163.009,328.889 158.199 C 328.889 153.005,328.756 153.381,330.588 153.381 C 332.282 153.381,332.480 153.245,332.622 151.990 C 332.811 150.306,332.969 150.355,327.306 150.355 C 324.571 150.355,322.276 150.411,322.206 150.481 M340.912 150.652 C 340.655 150.908,340.615 151.695,340.615 156.378 C 340.615 162.883,340.545 162.648,342.479 162.648 C 344.175 162.648,344.208 162.600,344.208 160.145 L 344.208 158.096 346.241 158.150 L 348.274 158.203 348.324 160.095 C 348.386 162.457,348.544 162.648,350.432 162.648 C 352.255 162.648,352.151 163.018,352.151 156.501 C 352.151 149.992,352.252 150.355,350.453 150.355 C 348.518 150.355,348.369 150.530,348.369 152.801 C 348.369 155.121,348.376 155.114,346.071 155.043 L 344.303 154.988 344.249 152.919 C 344.219 151.781,344.102 150.738,343.989 150.602 C 343.681 150.231,341.294 150.269,340.912 150.652 M111.622 151.043 C 111.903 151.184,112.254 151.300,112.402 151.300 C 112.976 151.300,113.127 151.785,112.804 152.593 L 112.498 153.358 111.804 153.004 C 109.426 151.791,106.299 152.765,107.473 154.353 C 107.693 154.650,107.964 154.894,108.076 154.894 C 108.188 154.894,108.597 155.064,108.986 155.272 C 109.374 155.480,109.798 155.650,109.928 155.650 C 112.406 155.652,114.285 158.854,112.904 160.721 C 111.455 162.681,106.031 162.696,104.812 160.744 C 104.237 159.824,105.296 159.061,106.235 159.719 C 108.224 161.112,111.395 160.739,111.395 159.112 C 111.395 158.479,109.635 157.163,108.789 157.163 C 107.585 157.163,105.688 155.788,105.227 154.582 C 104.225 151.956,108.615 149.526,111.622 151.043 M219.291 151.023 C 219.603 151.159,220.033 151.320,220.247 151.381 C 223.460 152.295,224.250 158.012,221.530 160.654 C 219.226 162.892,214.657 162.872,212.565 160.617 C 211.040 158.971,210.969 158.789,210.969 156.501 L 210.969 154.421 211.709 153.386 C 213.471 150.922,216.730 149.906,219.291 151.023 M289.967 151.041 C 290.248 151.183,290.609 151.300,290.770 151.300 C 291.171 151.300,292.455 152.490,293.195 153.548 C 294.042 154.759,294.127 158.128,293.338 159.243 C 291.593 161.709,290.706 162.175,287.754 162.175 C 281.937 162.175,279.256 156.251,283.287 152.303 C 284.852 150.770,288.192 150.139,289.967 151.041 M33.515 151.126 C 36.190 152.178,36.838 155.694,34.716 157.637 C 33.818 158.460,33.849 158.957,34.894 160.483 C 35.860 161.894,35.891 162.008,35.362 162.176 C 34.623 162.411,33.850 162.085,33.523 161.401 C 33.354 161.046,33.147 160.757,33.062 160.757 C 32.977 160.757,32.908 160.644,32.908 160.507 C 32.908 160.370,32.634 159.902,32.300 159.467 L 31.692 158.676 30.361 158.679 C 28.540 158.683,28.481 158.740,28.369 160.607 C 28.269 162.264,27.778 162.767,26.939 162.071 C 26.652 161.832,26.512 151.140,26.793 150.859 C 27.134 150.518,32.513 150.732,33.515 151.126 M47.997 153.085 C 48.066 155.979,47.914 155.839,50.980 155.839 C 54.619 155.839,54.445 155.972,54.509 153.151 L 54.563 150.827 55.319 150.827 L 56.076 150.827 56.126 156.450 L 56.176 162.072 55.671 162.198 C 54.721 162.437,54.572 162.145,54.468 159.853 C 54.351 157.270,54.593 157.459,51.309 157.385 C 47.984 157.311,48.158 157.180,48.038 159.847 C 47.932 162.201,47.762 162.511,46.771 162.163 L 46.241 161.977 46.191 156.510 C 46.136 150.517,46.103 150.690,47.281 150.778 L 47.943 150.827 47.997 153.085 M73.361 152.671 C 73.817 153.738,74.475 155.225,74.825 155.976 C 75.175 156.727,75.461 157.392,75.461 157.453 C 75.461 157.559,76.112 159.053,76.695 160.284 C 77.448 161.874,77.386 162.270,76.383 162.270 C 75.785 162.270,75.174 161.601,74.985 160.741 C 74.764 159.736,74.313 159.605,71.279 159.664 L 68.560 159.716 68.046 160.757 C 67.360 162.146,67.232 162.270,66.481 162.270 C 65.618 162.270,65.525 162.037,65.990 161.035 C 66.545 159.840,67.774 157.071,68.086 156.312 C 68.171 156.104,68.492 155.381,68.799 154.704 C 69.836 152.421,69.976 152.094,69.976 151.963 C 69.976 151.347,70.810 150.733,71.646 150.733 L 72.534 150.733 73.361 152.671 M93.308 151.018 C 93.606 151.173,93.941 151.300,94.054 151.300 C 94.336 151.300,95.319 152.265,95.319 152.542 C 95.319 152.666,95.447 152.873,95.603 153.002 C 96.058 153.380,95.985 155.639,95.486 156.596 C 94.734 158.039,93.753 158.502,91.196 158.625 C 88.648 158.748,88.707 158.704,88.703 160.482 C 88.700 161.903,88.520 162.270,87.826 162.270 C 86.767 162.270,86.809 162.510,86.809 156.386 L 86.809 150.733 89.787 150.734 C 92.060 150.735,92.894 150.802,93.308 151.018 M130.796 151.131 C 135.648 152.769,135.991 159.284,131.357 161.765 C 130.100 162.438,126.761 162.362,125.528 161.632 C 119.042 157.793,123.603 148.701,130.796 151.131 M151.233 151.128 C 156.028 152.590,156.493 159.301,151.962 161.650 C 150.845 162.230,145.351 162.558,144.775 162.080 C 144.478 161.833,144.328 151.148,144.618 150.859 C 144.946 150.531,149.940 150.734,151.233 151.128 M165.391 151.112 C 165.743 151.501,165.997 151.909,166.510 152.908 C 166.670 153.220,166.909 153.645,167.041 153.853 C 167.173 154.061,167.527 154.632,167.827 155.121 C 168.358 155.985,169.456 156.079,169.456 155.261 C 169.456 155.156,170.017 154.094,170.701 152.901 L 171.946 150.733 172.782 150.733 C 173.608 150.733,173.855 150.986,173.438 151.404 C 173.339 151.503,173.055 151.967,172.806 152.435 C 171.873 154.189,170.796 156.161,170.137 157.323 C 169.488 158.467,169.456 158.607,169.456 160.308 C 169.456 162.269,169.321 162.494,168.347 162.153 C 167.867 161.985,167.845 161.913,167.747 160.185 C 167.655 158.564,167.579 158.275,166.949 157.163 C 166.567 156.487,166.052 155.551,165.805 155.083 C 164.581 152.760,164.223 152.110,163.906 151.640 C 163.299 150.740,164.627 150.268,165.391 151.112 M202.520 151.576 C 202.611 152.693,202.329 152.813,199.623 152.813 C 196.946 152.813,196.879 152.851,196.879 154.353 C 196.879 155.732,196.867 155.725,199.716 155.839 L 202.080 155.934 202.140 156.656 C 202.236 157.826,202.044 157.920,199.542 157.920 C 196.826 157.920,196.879 157.875,196.879 160.126 C 196.879 162.112,196.770 162.270,195.394 162.270 C 193.949 162.270,194.043 162.668,194.043 156.512 C 194.043 153.472,194.101 150.927,194.172 150.855 C 194.244 150.784,196.137 150.749,198.380 150.777 L 202.459 150.827 202.520 151.576 M239.830 151.038 C 239.975 151.153,240.307 151.304,240.567 151.373 C 242.506 151.886,243.068 155.907,241.420 157.476 C 240.417 158.432,240.417 158.710,241.418 160.189 C 242.589 161.919,242.530 162.159,240.915 162.230 C 239.529 162.292,239.312 162.135,238.613 160.567 C 237.567 158.220,235.272 158.408,235.272 160.843 C 235.272 162.159,235.166 162.261,233.794 162.267 C 232.380 162.273,232.435 162.505,232.435 156.532 C 232.435 152.510,232.494 151.127,232.671 150.947 C 232.978 150.636,239.427 150.718,239.830 151.038 M265.112 150.969 C 265.279 151.174,265.915 152.333,266.833 154.106 C 267.535 155.462,267.997 155.677,268.430 154.846 C 268.606 154.508,269.092 153.636,269.510 152.908 C 269.928 152.180,270.367 151.392,270.485 151.158 C 270.705 150.720,273.286 150.480,273.286 150.897 C 273.286 151.054,272.731 152.134,270.893 155.556 C 269.389 158.356,269.314 158.579,269.314 160.262 C 269.314 162.052,269.181 162.271,268.095 162.267 C 266.530 162.262,266.531 162.262,266.432 160.220 C 266.354 158.624,266.267 158.248,265.741 157.258 C 264.842 155.565,264.852 155.584,264.612 155.177 C 264.490 154.969,264.261 154.544,264.105 154.232 C 263.948 153.920,263.489 153.069,263.085 152.342 C 262.681 151.615,262.391 150.955,262.440 150.876 C 262.591 150.631,264.901 150.712,265.112 150.969 M305.816 154.610 C 305.921 158.816,305.977 159.029,307.138 159.621 C 308.167 160.146,309.724 159.860,310.574 158.991 C 310.591 158.974,310.655 157.130,310.716 154.894 L 310.827 150.827 312.151 150.827 L 313.475 150.827 313.475 154.988 C 313.475 159.544,313.405 159.855,312.088 161.080 C 310.032 162.995,305.687 162.676,304.018 160.488 C 303.146 159.345,302.979 158.385,302.979 154.517 C 302.979 150.453,302.879 150.701,304.484 150.772 L 305.721 150.827 305.816 154.610 M332.261 151.370 C 332.409 152.670,332.246 152.813,330.625 152.813 C 328.594 152.813,328.700 152.554,328.697 157.532 C 328.693 162.513,328.760 162.307,327.170 162.232 L 325.957 162.175 325.863 157.699 C 325.754 152.553,325.907 152.935,323.909 152.813 L 322.364 152.719 322.307 151.723 L 322.250 150.727 327.224 150.777 L 332.199 150.827 332.261 151.370 M343.857 152.993 C 343.941 155.801,343.842 155.701,346.442 155.620 C 348.985 155.541,348.822 155.711,348.936 153.035 L 349.031 150.827 350.402 150.772 L 351.773 150.716 351.773 156.376 L 351.773 162.036 351.348 162.150 C 349.383 162.677,348.936 162.272,348.936 159.969 C 348.936 157.708,348.964 157.730,346.217 157.730 C 343.838 157.730,343.952 157.612,343.830 160.189 L 343.735 162.175 342.506 162.175 L 341.277 162.175 341.227 156.454 L 341.176 150.733 342.483 150.733 L 343.790 150.733 343.857 152.993 M28.936 152.384 C 28.442 152.572,28.375 152.862,28.372 154.809 C 28.368 157.133,28.393 157.163,30.274 157.163 C 33.508 157.163,35.255 155.264,33.789 153.342 C 33.131 152.480,30.203 151.901,28.936 152.384 M88.906 152.509 C 88.761 152.684,88.705 153.499,88.741 154.921 L 88.794 157.069 90.146 157.124 C 93.373 157.255,95.254 155.153,93.658 153.199 C 93.019 152.416,89.417 151.894,88.906 152.509 M127.187 152.588 C 125.270 153.263,124.356 154.526,124.356 156.501 C 124.356 161.418,131.167 162.330,132.654 157.613 C 133.650 154.453,130.393 151.460,127.187 152.588 M146.491 152.543 C 146.106 152.928,146.043 160.151,146.421 160.530 C 147.615 161.724,152.480 160.015,152.916 158.249 C 152.986 157.962,153.120 157.680,153.212 157.623 C 153.920 157.186,152.927 154.179,151.789 153.311 C 150.506 152.332,147.183 151.851,146.491 152.543 M32.124 152.935 C 32.893 153.015,33.286 153.140,33.286 153.304 C 33.286 153.440,33.431 153.632,33.608 153.731 C 34.350 154.146,33.694 156.196,32.813 156.213 C 32.605 156.217,32.191 156.347,31.893 156.502 C 29.963 157.509,28.747 156.741,28.747 154.516 C 28.747 152.750,29.040 152.612,32.124 152.935 M93.293 153.351 C 94.090 154.148,93.650 156.215,92.683 156.219 C 92.520 156.219,92.144 156.347,91.846 156.502 C 90.943 156.973,89.148 156.883,89.008 156.359 C 88.845 155.750,88.862 153.093,89.031 152.917 C 89.331 152.603,92.910 152.967,93.293 153.351 M130.612 153.293 C 130.727 153.445,130.907 153.570,131.012 153.570 C 132.049 153.570,132.761 157.598,131.884 158.503 C 131.693 158.700,131.339 159.063,131.097 159.309 C 130.563 159.852,128.546 160.458,128.078 160.217 C 127.900 160.125,127.456 159.993,127.092 159.924 C 126.283 159.771,125.557 159.159,125.219 158.343 C 125.080 158.006,124.891 157.730,124.800 157.730 C 123.860 157.730,125.057 154.284,126.286 153.451 C 127.277 152.779,130.143 152.674,130.612 153.293 M149.929 152.936 C 153.612 153.378,153.862 159.244,150.229 159.974 C 148.830 160.255,147.086 160.249,146.799 159.962 C 146.391 159.554,146.487 153.052,146.903 152.944 C 147.420 152.809,148.839 152.805,149.929 152.936 M235.654 152.996 C 235.202 153.282,235.132 155.938,235.564 156.416 C 236.631 157.595,239.811 156.386,239.811 154.802 C 239.811 153.446,236.925 152.192,235.654 152.996 M215.648 153.353 C 213.182 154.306,213.045 158.365,215.437 159.563 C 217.826 160.759,220.331 159.182,220.331 156.482 C 220.331 153.902,218.094 152.407,215.648 153.353 M286.619 153.261 C 283.107 154.585,284.071 160.048,287.806 159.989 C 290.471 159.947,291.981 156.784,290.464 154.421 C 289.721 153.262,287.997 152.742,286.619 153.261 M71.033 153.773 C 70.764 154.093,70.543 154.498,70.543 154.672 C 70.543 154.846,70.392 155.243,70.209 155.556 C 69.002 157.611,69.172 157.920,71.506 157.920 C 73.700 157.920,73.815 157.825,73.209 156.509 C 72.420 154.795,72.093 154.034,71.969 153.617 C 71.800 153.049,71.617 153.080,71.033 153.773 M238.915 153.733 C 239.186 154.004,239.280 155.162,239.074 155.697 C 238.879 156.205,238.838 156.217,237.357 156.217 L 235.839 156.217 235.839 154.925 C 235.839 154.214,235.903 153.567,235.981 153.486 C 236.155 153.307,238.703 153.521,238.915 153.733 M218.945 154.075 C 220.461 155.591,220.214 158.631,218.534 159.127 C 218.222 159.219,217.788 159.375,217.569 159.475 C 217.291 159.602,216.907 159.566,216.286 159.355 C 215.799 159.190,215.276 159.054,215.123 159.054 C 214.971 159.054,214.846 158.938,214.846 158.796 C 214.846 158.654,214.676 158.322,214.468 158.057 C 213.612 156.969,214.358 154.096,215.603 153.688 C 216.405 153.425,218.543 153.673,218.945 154.075 M289.566 153.955 C 291.407 155.924,290.986 158.610,288.722 159.329 C 287.848 159.606,287.535 159.635,287.259 159.463 C 287.066 159.342,286.750 159.243,286.556 159.243 C 285.862 159.243,284.634 157.485,284.633 156.489 C 284.632 155.741,285.727 153.968,286.359 153.693 C 286.888 153.464,289.290 153.660,289.566 153.955 M72.175 155.272 C 72.426 155.844,72.760 156.559,72.919 156.862 C 73.320 157.626,73.091 157.757,71.473 157.692 C 69.845 157.627,69.698 157.434,70.339 156.204 C 70.556 155.789,70.733 155.351,70.733 155.230 C 70.733 154.876,71.577 153.745,71.652 153.999 C 71.689 154.127,71.925 154.700,72.175 155.272 " stroke="none" fill="#94cbd3" fill-rule="evenodd"></path></g></svg>